<?xml version="1.0" encoding="utf-8" standalone="no"?>
<!DOCTYPE svg PUBLIC "-//W3C//DTD SVG 1.1//EN"
  "http://www.w3.org/Graphics/SVG/1.1/DTD/svg11.dtd">
<!-- Created with matplotlib (https://matplotlib.org/) -->
<svg height="1080pt" version="1.1" viewBox="0 0 1080 1080" width="1080pt" xmlns="http://www.w3.org/2000/svg" xmlns:xlink="http://www.w3.org/1999/xlink">
 <defs>
  <style type="text/css">
*{stroke-linecap:butt;stroke-linejoin:round;}
  </style>
 </defs>
 <g id="figure_1">
  <g id="patch_1">
   <path d="M 0 1080 
L 1080 1080 
L 1080 0 
L 0 0 
z
" style="fill:#ffffff;"/>
  </g>
  <g id="axes_1">
   <g id="patch_2">
    <path d="M 135 755.752838 
L 972 755.752838 
L 972 318.847162 
L 135 318.847162 
z
" style="fill:#ffffff;"/>
   </g>
   <g id="PatchCollection_1">
    <path clip-path="url(#p5921451dab)" d="M 555.835174 619.234923 
L 554.790961 619.234923 
L 554.790961 621.838302 
L 554.268855 621.838302 
L 554.268855 622.360409 
L 553.753901 622.360409 
L 553.753901 622.882515 
L 553.231795 622.882515 
L 553.231795 623.919575 
L 552.187582 623.919575 
L 552.187582 624.441682 
L 551.665476 624.441682 
L 551.665476 626.000848 
L 551.14337 626.000848 
L 551.14337 627.567167 
L 548.025036 627.567167 
L 548.025036 628.089273 
L 545.414505 628.089273 
L 545.414505 627.567167 
L 544.377445 627.567167 
L 544.377445 627.045061 
L 542.811126 627.045061 
L 542.811126 626.522955 
L 540.729853 626.522955 
L 540.729853 626.000848 
L 540.207747 626.000848 
L 540.207747 625.485894 
L 539.170686 625.485894 
L 539.170686 624.963788 
L 538.64858 624.963788 
L 538.64858 624.441682 
L 538.126474 624.441682 
L 538.126474 622.882515 
L 537.604367 622.882515 
L 537.604367 622.360409 
L 537.082261 622.360409 
L 537.082261 621.838302 
L 536.567307 621.838302 
L 536.567307 619.757029 
L 536.045201 619.757029 
L 536.045201 619.234923 
L 531.875503 619.234923 
L 531.875503 618.712817 
L 531.353396 618.712817 
L 531.353396 618.190711 
L 530.838442 618.190711 
L 530.838442 617.668604 
L 529.79423 617.668604 
L 529.79423 615.587331 
L 530.316336 615.587331 
L 530.316336 615.065225 
L 530.838442 615.065225 
L 530.838442 614.028165 
L 530.316336 614.028165 
L 530.316336 613.506059 
L 529.79423 613.506059 
L 529.79423 614.028165 
L 529.272124 614.028165 
L 529.272124 615.065225 
L 528.750017 615.065225 
L 528.750017 615.587331 
L 528.227911 615.587331 
L 528.227911 618.712817 
L 527.712957 618.712817 
L 527.712957 619.234923 
L 525.624532 619.234923 
L 525.624532 619.757029 
L 524.587471 619.757029 
L 524.587471 620.271984 
L 520.93988 620.271984 
L 520.93988 620.79409 
L 520.417773 620.79409 
L 520.417773 622.360409 
L 519.895667 622.360409 
L 519.895667 622.882515 
L 519.380713 622.882515 
L 519.380713 623.397469 
L 518.858607 623.397469 
L 518.858607 624.963788 
L 518.336501 624.963788 
L 518.336501 627.567167 
L 518.858607 627.567167 
L 518.858607 629.126334 
L 519.380713 629.126334 
L 519.380713 629.64844 
L 520.417773 629.64844 
L 520.417773 630.692653 
L 521.984092 630.692653 
L 521.984092 631.214759 
L 524.065365 631.214759 
L 524.065365 633.818138 
L 523.543259 633.818138 
L 523.543259 641.106169 
L 524.065365 641.106169 
L 524.065365 642.150382 
L 524.587471 642.150382 
L 524.587471 642.672488 
L 525.624532 642.672488 
L 525.624532 644.231655 
L 525.109578 644.231655 
L 525.109578 646.312928 
L 524.587471 646.312928 
L 524.587471 646.835034 
L 524.065365 646.835034 
L 524.065365 647.879246 
L 523.543259 647.879246 
L 523.543259 648.916307 
L 524.065365 648.916307 
L 524.065365 649.438413 
L 524.587471 649.438413 
L 524.587471 651.526838 
L 524.065365 651.526838 
L 524.065365 652.041792 
L 523.543259 652.041792 
L 523.543259 653.086005 
L 524.065365 653.086005 
L 524.065365 653.608111 
L 524.587471 653.608111 
L 524.587471 654.130217 
L 525.109578 654.130217 
L 525.109578 654.487824 
L 525.109578 655.167278 
L 524.587471 655.167278 
L 524.587471 655.689384 
L 524.065365 655.689384 
L 524.065365 656.733597 
L 523.021153 656.733597 
L 523.021153 657.255703 
L 521.984092 657.255703 
L 521.984092 657.770657 
L 519.895667 657.770657 
L 519.895667 658.292763 
L 517.814394 658.292763 
L 517.814394 657.770657 
L 507.922984 657.770657 
L 507.922984 658.292763 
L 507.400877 658.292763 
L 507.400877 658.81487 
L 506.878771 658.81487 
L 506.878771 660.374036 
L 506.356665 660.374036 
L 506.356665 660.896142 
L 505.834559 660.896142 
L 505.834559 661.418249 
L 505.319605 661.418249 
L 505.312452 662.462461 
L 504.797498 662.462461 
L 504.797498 662.984568 
L 504.275392 662.984568 
L 504.275392 663.499522 
L 503.753286 663.499522 
L 503.753286 664.021628 
L 501.149907 664.021628 
L 501.149907 664.543734 
L 500.105694 664.543734 
L 500.105694 667.66922 
L 500.6278 667.66922 
L 500.6278 668.191326 
L 501.149907 668.191326 
L 501.149907 668.713432 
L 501.672013 668.713432 
L 501.672013 671.316811 
L 502.194119 671.316811 
L 502.194119 671.831766 
L 501.672013 671.831766 
L 501.672013 672.353872 
L 500.6278 672.353872 
L 500.6278 674.442297 
L 500.105694 674.442297 
L 500.105694 674.957251 
L 499.59074 674.957251 
L 499.59074 675.479357 
L 499.068634 675.479357 
L 499.068634 676.001463 
L 498.024421 676.001463 
L 498.024421 676.52357 
L 494.898936 676.52357 
L 494.898936 676.001463 
L 494.376829 676.001463 
L 494.376829 675.479357 
L 493.861875 675.479357 
L 493.861875 674.442297 
L 494.376829 674.442297 
L 494.376829 673.920191 
L 494.898936 673.920191 
L 494.898936 673.398084 
L 495.943148 673.398084 
L 495.943148 672.875978 
L 495.421042 672.875978 
L 495.421042 672.353872 
L 493.861875 672.353872 
L 493.861875 671.831766 
L 493.339769 671.831766 
L 493.339769 671.316811 
L 491.251344 671.316811 
L 491.251344 670.272599 
L 490.214284 670.272599 
L 490.214284 669.750493 
L 488.133011 669.750493 
L 488.133011 669.228386 
L 486.566692 669.228386 
L 486.566692 669.750493 
L 485.007525 669.750493 
L 485.007525 669.228386 
L 483.963313 669.228386 
L 483.963313 668.713432 
L 479.793615 668.713432 
L 479.793615 668.191326 
L 478.756554 668.191326 
L 478.756554 667.66922 
L 478.234448 667.66922 
L 478.234448 666.625007 
L 477.712342 666.625007 
L 477.712342 666.102901 
L 477.190235 666.102901 
L 477.190235 664.543734 
L 477.712342 664.543734 
L 477.712342 664.021628 
L 478.234448 664.021628 
L 478.234448 663.499522 
L 478.756554 663.499522 
L 478.756554 662.984568 
L 478.234448 662.984568 
L 478.234448 662.462461 
L 477.712342 662.462461 
L 477.712342 661.940355 
L 477.190235 661.940355 
L 477.190235 661.418249 
L 476.153175 661.418249 
L 476.153175 660.896142 
L 473.549796 660.896142 
L 473.549796 660.374036 
L 471.983477 660.374036 
L 471.983477 660.896142 
L 471.461371 660.896142 
L 471.461371 661.418249 
L 471.983477 661.418249 
L 471.983477 661.940355 
L 471.461371 661.940355 
L 471.461371 662.984568 
L 470.946417 662.984568 
L 470.946417 664.543734 
L 470.42431 664.543734 
L 470.42431 665.06584 
L 469.902204 665.06584 
L 469.902204 666.102901 
L 469.380098 666.102901 
L 469.380098 666.625007 
L 468.857992 666.625007 
L 468.857992 667.147113 
L 468.335885 667.147113 
L 468.335885 667.66922 
L 467.820931 667.66922 
L 467.820931 668.191326 
L 467.298825 668.191326 
L 467.298825 668.713432 
L 465.732506 668.713432 
L 465.732506 668.191326 
L 465.217552 668.191326 
L 465.217552 667.66922 
L 464.695446 667.66922 
L 464.695446 667.147113 
L 464.173339 667.147113 
L 464.173339 666.625007 
L 462.092067 666.625007 
L 462.092067 666.102901 
L 461.56996 666.102901 
L 461.56996 665.587947 
L 460.525748 665.587947 
L 460.525748 664.543734 
L 461.047854 664.543734 
L 461.047854 661.940355 
L 461.56996 661.940355 
L 461.56996 660.374036 
L 462.092067 660.374036 
L 462.092067 659.859082 
L 462.607021 659.859082 
L 462.607021 659.336976 
L 463.129127 659.336976 
L 463.129127 656.733597 
L 462.607021 656.733597 
L 462.607021 656.21149 
L 462.092067 656.21149 
L 462.092067 655.167278 
L 461.56996 655.167278 
L 461.56996 654.645172 
L 460.003641 654.645172 
L 460.003641 655.167278 
L 460.525748 655.167278 
L 460.525748 656.733597 
L 460.003641 656.733597 
L 460.003641 658.81487 
L 459.488687 658.81487 
L 459.488687 659.336976 
L 458.444475 659.336976 
L 458.444475 658.81487 
L 457.922369 658.81487 
L 457.922369 657.770657 
L 457.400262 657.770657 
L 457.400262 656.733597 
L 456.878156 656.733597 
L 456.878156 655.689384 
L 455.841096 655.689384 
L 455.841096 655.167278 
L 455.318989 655.167278 
L 455.318989 654.645172 
L 454.274777 654.645172 
L 454.274777 655.167278 
L 451.671398 655.167278 
L 451.671398 656.21149 
L 451.149291 656.21149 
L 451.149291 657.255703 
L 450.634337 657.255703 
L 450.634337 657.770657 
L 450.112231 657.770657 
L 450.112231 658.292763 
L 448.545912 658.292763 
L 448.545912 658.81487 
L 448.030958 658.81487 
L 448.030958 660.374036 
L 447.508852 660.374036 
L 447.508852 661.418249 
L 448.030958 661.418249 
L 448.030958 661.940355 
L 448.545912 661.940355 
L 448.545912 662.462461 
L 449.068018 662.462461 
L 449.068018 662.984568 
L 449.590125 662.984568 
L 449.590125 664.021628 
L 449.068018 664.021628 
L 449.068018 664.543734 
L 445.420427 664.543734 
L 445.420427 664.021628 
L 440.213668 664.021628 
L 440.213668 663.499522 
L 439.176608 663.499522 
L 439.176608 662.984568 
L 438.654502 662.984568 
L 438.654502 661.418249 
L 439.176608 661.418249 
L 439.176608 660.896142 
L 439.691562 660.896142 
L 439.691562 660.374036 
L 440.735775 660.374036 
L 440.735775 659.859082 
L 442.302093 659.859082 
L 442.302093 659.336976 
L 442.817047 659.336976 
L 442.817047 657.255703 
L 442.302093 657.255703 
L 442.302093 656.733597 
L 440.213668 656.733597 
L 440.213668 655.689384 
L 439.691562 655.689384 
L 439.691562 655.167278 
L 439.176608 655.167278 
L 439.176608 654.645172 
L 437.610289 654.645172 
L 437.610289 655.167278 
L 437.088183 655.167278 
L 437.088183 656.21149 
L 436.573229 656.21149 
L 436.573229 656.733597 
L 436.051122 656.733597 
L 436.051122 657.255703 
L 435.00691 657.255703 
L 435.00691 657.770657 
L 432.925637 657.770657 
L 432.925637 656.733597 
L 432.403531 656.733597 
L 432.403531 656.21149 
L 431.881424 656.21149 
L 431.881424 655.689384 
L 431.359318 655.689384 
L 431.359318 655.167278 
L 430.844364 655.167278 
L 430.844364 654.645172 
L 429.800152 654.645172 
L 429.800152 653.608111 
L 429.278045 653.608111 
L 429.278045 653.086005 
L 428.755939 653.086005 
L 428.755939 652.041792 
L 428.233833 652.041792 
L 428.233833 651.526838 
L 426.674666 651.526838 
L 426.674666 652.041792 
L 426.15256 652.041792 
L 426.15256 652.563899 
L 425.630454 652.563899 
L 425.630454 653.086005 
L 421.990014 653.086005 
L 421.990014 652.563899 
L 419.901589 652.563899 
L 419.901589 652.041792 
L 416.776103 652.041792 
L 416.776103 652.563899 
L 414.172724 652.563899 
L 414.172724 653.086005 
L 412.091451 653.086005 
L 412.091451 653.608111 
L 411.569345 653.608111 
L 411.569345 654.130217 
L 410.532285 654.130217 
L 410.532285 654.645172 
L 410.010178 654.645172 
L 410.010178 655.167278 
L 408.965966 655.167278 
L 408.965966 656.21149 
L 409.488072 656.21149 
L 409.488072 659.336976 
L 408.965966 659.336976 
L 408.965966 659.859082 
L 408.44386 659.859082 
L 408.44386 660.374036 
L 407.406799 660.374036 
L 407.406799 660.896142 
L 406.362587 660.896142 
L 406.362587 660.374036 
L 405.84048 660.374036 
L 405.84048 659.859082 
L 405.325526 659.859082 
L 405.318374 658.81487 
L 404.80342 658.81487 
L 404.80342 658.292763 
L 403.759207 658.292763 
L 403.759207 658.81487 
L 403.237101 658.81487 
L 403.237101 659.859082 
L 402.714995 659.859082 
L 402.714995 661.418249 
L 402.200041 661.418249 
L 402.200041 662.462461 
L 401.677934 662.462461 
L 401.677934 664.021628 
L 401.155828 664.021628 
L 401.155828 665.06584 
L 400.633722 665.06584 
L 400.633722 665.587947 
L 400.111616 665.587947 
L 400.111616 666.102901 
L 402.714995 666.102901 
L 402.714995 666.625007 
L 403.759207 666.625007 
L 403.759207 667.147113 
L 404.281314 667.147113 
L 404.281314 667.66922 
L 404.80342 667.66922 
L 404.80342 669.228386 
L 405.318374 669.228386 
L 405.318374 669.750493 
L 404.80342 669.750493 
L 404.80342 670.794705 
L 403.237101 670.794705 
L 403.237101 671.316811 
L 402.714995 671.316811 
L 402.714995 671.831766 
L 402.200041 671.831766 
L 402.200041 672.875978 
L 401.677934 672.875978 
L 401.677934 672.353872 
L 401.155828 672.353872 
L 401.155828 671.831766 
L 400.111616 671.831766 
L 400.111616 672.875978 
L 400.633722 672.875978 
L 400.633722 673.920191 
L 400.111616 673.920191 
L 400.111616 674.957251 
L 399.589509 674.957251 
L 399.589509 675.479357 
L 398.030343 675.479357 
L 398.030343 674.957251 
L 394.904857 674.957251 
L 394.904857 674.442297 
L 394.382751 674.442297 
L 394.382751 673.920191 
L 392.823584 673.920191 
L 392.823584 673.398084 
L 391.257266 673.398084 
L 391.257266 672.875978 
L 390.742311 672.875978 
L 390.742311 672.353872 
L 390.220205 672.353872 
L 390.220205 669.228386 
L 390.742311 669.228386 
L 390.742311 668.713432 
L 391.257266 668.713432 
L 391.257266 667.66922 
L 391.779372 667.66922 
L 391.779372 666.625007 
L 390.742311 666.625007 
L 390.742311 666.102901 
L 390.220205 666.102901 
L 390.220205 665.587947 
L 389.698099 665.587947 
L 389.698099 664.021628 
L 389.175993 664.021628 
L 389.175993 662.462461 
L 388.653886 662.462461 
L 388.653886 660.896142 
L 388.138932 660.896142 
L 388.138932 660.374036 
L 387.09472 660.374036 
L 387.09472 659.859082 
L 385.528401 659.859082 
L 385.528401 659.336976 
L 384.491341 659.336976 
L 384.491341 658.81487 
L 382.925022 658.81487 
L 382.925022 658.292763 
L 382.410068 658.292763 
L 382.410068 656.733597 
L 381.887961 656.733597 
L 381.887961 656.21149 
L 381.365855 656.21149 
L 381.365855 655.689384 
L 380.843749 655.689384 
L 380.843749 655.167278 
L 380.321643 655.167278 
L 380.321643 654.645172 
L 377.196157 654.645172 
L 377.196157 654.130217 
L 375.63699 654.130217 
L 375.63699 653.608111 
L 374.592778 653.608111 
L 374.592778 653.086005 
L 373.555717 653.086005 
L 373.555717 652.041792 
L 373.033611 652.041792 
L 373.033611 649.960519 
L 372.511505 649.960519 
L 372.511505 649.438413 
L 368.863913 649.438413 
L 368.863913 648.916307 
L 367.304747 648.916307 
L 367.304747 648.401353 
L 365.738428 648.401353 
L 365.738428 647.879246 
L 363.135049 647.879246 
L 363.135049 648.401353 
L 360.009563 648.401353 
L 360.009563 647.879246 
L 358.450396 647.879246 
L 358.450396 645.797974 
L 358.972503 645.797974 
L 358.972503 645.275867 
L 359.494609 645.275867 
L 359.494609 644.753761 
L 360.009563 644.753761 
L 360.009563 644.231655 
L 360.531669 644.231655 
L 360.531669 642.150382 
L 360.009563 642.150382 
L 360.009563 641.628276 
L 359.494609 641.628276 
L 359.494609 641.106169 
L 358.972503 641.106169 
L 358.972503 640.584063 
L 357.92829 640.584063 
L 357.92829 640.069109 
L 356.884078 640.069109 
L 355.847017 640.069109 
L 355.847017 638.50279 
L 355.324911 638.50279 
L 355.324911 637.458578 
L 355.847017 637.458578 
L 355.847017 636.943623 
L 356.369124 636.943623 
L 356.369124 635.377305 
L 356.884078 635.377305 
L 356.884078 634.855198 
L 357.406184 634.855198 
L 357.406184 634.340244 
L 357.92829 634.340244 
L 357.92829 633.296032 
L 358.450396 633.296032 
L 358.450396 632.773925 
L 357.92829 632.773925 
L 357.92829 632.251819 
L 358.450396 632.251819 
L 358.450396 629.126334 
L 357.92829 629.126334 
L 357.92829 627.567167 
L 357.406184 627.567167 
L 357.406184 627.045061 
L 356.884078 627.045061 
L 356.884078 626.522955 
L 356.369124 626.522955 
L 356.369124 626.000848 
L 354.802805 626.000848 
L 354.802805 625.485894 
L 354.280698 625.485894 
L 354.280698 623.397469 
L 354.802805 623.397469 
L 354.802805 621.838302 
L 354.280698 621.838302 
L 354.280698 621.316196 
L 353.765744 621.316196 
L 353.765744 620.79409 
L 354.280698 620.79409 
L 354.280698 619.757029 
L 353.765744 619.757029 
L 353.765744 616.109438 
L 354.280698 616.109438 
L 354.280698 615.065225 
L 354.802805 615.065225 
L 354.802805 614.550271 
L 354.280698 614.543119 
L 354.280698 614.028165 
L 353.243638 614.028165 
L 353.243638 614.543119 
L 352.721532 614.550271 
L 352.721532 615.587331 
L 352.199426 615.587331 
L 352.199426 616.109438 
L 351.155213 616.109438 
L 351.155213 615.587331 
L 349.596046 615.587331 
L 349.596046 616.109438 
L 346.992667 616.109438 
L 346.992667 615.587331 
L 346.470561 615.587331 
L 346.470561 614.550271 
L 346.992667 614.550271 
L 346.992667 614.028165 
L 346.470561 614.028165 
L 346.470561 612.983952 
L 345.948455 612.983952 
L 345.948455 612.461846 
L 345.426348 612.461846 
L 345.426348 611.93974 
L 344.911394 611.93974 
L 344.911394 611.424786 
L 344.389288 611.424786 
L 344.389288 609.858467 
L 344.911394 609.858467 
L 344.911394 609.336361 
L 345.426348 609.336361 
L 345.426348 608.821406 
L 344.911394 608.814254 
L 344.911394 608.2993 
L 343.867182 608.2993 
L 343.867182 607.777194 
L 342.308015 607.777194 
L 342.308015 608.2993 
L 341.263802 608.2993 
L 341.263802 608.814254 
L 338.660423 608.821406 
L 338.660423 609.336361 
L 337.616211 609.336361 
L 337.616211 609.858467 
L 336.57915 609.858467 
L 336.57915 610.380573 
L 336.057044 610.380573 
L 336.057044 610.902679 
L 335.012832 610.902679 
L 335.012832 610.380573 
L 334.490725 610.380573 
L 334.490725 609.858467 
L 333.968619 609.858467 
L 333.968619 609.336361 
L 333.453665 609.336361 
L 333.453665 608.821406 
L 332.931559 608.814254 
L 332.931559 608.2993 
L 330.328179 608.2993 
L 330.328179 607.777194 
L 329.283967 607.777194 
L 329.283967 607.255088 
L 328.761861 607.255088 
L 328.761861 605.173815 
L 327.202694 605.173815 
L 327.202694 604.651708 
L 325.636375 604.651708 
L 325.636375 604.129602 
L 323.032996 604.129602 
L 323.032996 604.651708 
L 323.555102 604.651708 
L 323.555102 606.210875 
L 323.032996 606.210875 
L 323.032996 606.732981 
L 320.429617 606.732981 
L 320.429617 607.255088 
L 319.392556 607.255088 
L 319.392556 607.777194 
L 315.222858 607.777194 
L 315.222858 607.255088 
L 314.700752 607.255088 
L 314.700752 605.695921 
L 315.222858 605.695921 
L 315.222858 604.129602 
L 315.744965 604.129602 
L 315.744965 603.607496 
L 317.304131 603.607496 
L 317.304131 603.092542 
L 317.826238 603.092542 
L 317.826238 602.570436 
L 318.348344 602.570436 
L 318.348344 602.048329 
L 318.87045 602.048329 
L 318.87045 601.526223 
L 318.348344 601.526223 
L 318.348344 601.004117 
L 316.267071 601.004117 
L 316.267071 600.48201 
L 314.700752 600.48201 
L 314.700752 601.004117 
L 313.663692 601.004117 
L 313.663692 601.526223 
L 313.141585 601.526223 
L 313.141585 602.048329 
L 312.097373 602.048329 
L 312.097373 602.570436 
L 311.05316 602.570436 
L 311.05316 603.092542 
L 307.934827 603.092542 
L 307.934827 602.570436 
L 305.846402 602.570436 
L 305.846402 602.048329 
L 305.324296 602.048329 
L 305.324296 601.526223 
L 304.287235 601.526223 
L 304.287235 601.004117 
L 303.765129 601.004117 
L 303.765129 600.48201 
L 303.243023 600.48201 
L 303.243023 599.967056 
L 302.720917 599.967056 
L 302.720917 599.44495 
L 301.683856 599.44495 
L 301.683856 599.967056 
L 301.16175 599.967056 
L 301.16175 601.526223 
L 300.117537 601.526223 
L 300.117537 602.048329 
L 299.080477 602.048329 
L 299.080477 601.526223 
L 298.036264 601.526223 
L 298.036264 601.004117 
L 297.514158 601.004117 
L 297.514158 600.48201 
L 296.992052 600.48201 
L 296.992052 599.967056 
L 292.3074 599.967056 
L 292.3074 598.922844 
L 292.829506 598.922844 
L 292.829506 597.363677 
L 293.351612 597.363677 
L 293.351612 596.841571 
L 292.829506 596.841571 
L 292.829506 596.319465 
L 292.3074 596.319465 
L 292.3074 595.797358 
L 291.263187 595.797358 
L 291.263187 595.275252 
L 289.181914 595.275252 
L 289.181914 594.753146 
L 288.144854 594.753146 
L 288.137702 594.238192 
L 286.056429 594.238192 
L 286.056429 593.716085 
L 285.534323 593.716085 
L 285.534323 593.193979 
L 285.019368 593.193979 
L 285.019368 593.716085 
L 284.497262 593.716085 
L 284.497262 594.753146 
L 282.415989 594.753146 
L 282.408837 594.238192 
L 281.371777 594.238192 
L 281.371777 593.716085 
L 280.327564 593.716085 
L 280.327564 593.193979 
L 279.805458 593.193979 
L 279.805458 592.671873 
L 278.768398 592.671873 
L 278.768398 592.149767 
L 277.202079 592.149767 
L 277.202079 590.5906 
L 276.687125 590.5906 
L 276.687125 588.509327 
L 276.165018 588.509327 
L 276.165018 587.987221 
L 276.687125 587.987221 
L 276.687125 586.943008 
L 277.724185 586.943008 
L 277.724185 586.420902 
L 278.246291 586.420902 
L 278.246291 585.905948 
L 277.724185 585.905948 
L 277.724185 585.383842 
L 276.165018 585.383842 
L 276.165018 585.905948 
L 275.642912 585.905948 
L 275.642912 585.383842 
L 270.436154 585.383842 
L 270.436154 584.861735 
L 269.914047 584.861735 
L 269.914047 584.339629 
L 268.869835 584.339629 
L 268.869835 583.817523 
L 268.347729 583.817523 
L 268.347729 583.295416 
L 267.832774 583.295416 
L 267.832774 582.780462 
L 267.310668 582.780462 
L 267.310668 577.566552 
L 267.832774 577.566552 
L 267.832774 577.051598 
L 268.347729 577.051598 
L 268.347729 575.485279 
L 268.869835 575.485279 
L 268.869835 574.448219 
L 267.832774 574.448219 
L 267.832774 573.926112 
L 267.310668 573.926112 
L 267.310668 573.404006 
L 266.788562 573.404006 
L 266.788562 572.8819 
L 265.229395 572.8819 
L 265.229395 573.404006 
L 264.707289 573.404006 
L 264.707289 573.926112 
L 263.14097 573.926112 
L 263.14097 574.448219 
L 259.500531 574.448219 
L 259.500531 573.926112 
L 258.978424 573.926112 
L 258.978424 573.404006 
L 258.456318 573.404006 
L 258.456318 572.8819 
L 257.934212 572.8819 
L 257.934212 572.359793 
L 256.375045 572.359793 
L 256.375045 571.837687 
L 255.330833 571.837687 
L 255.330833 571.322733 
L 254.808726 571.322733 
L 254.808726 570.800627 
L 253.771666 570.800627 
L 253.771666 570.278521 
L 253.24956 570.278521 
L 253.24956 569.756414 
L 252.727453 569.756414 
L 252.727453 567.675141 
L 253.24956 567.675141 
L 253.24956 565.593868 
L 252.727453 565.593868 
L 252.727453 565.071762 
L 253.24956 565.071762 
L 253.24956 563.505443 
L 252.727453 563.505443 
L 252.727453 562.468383 
L 252.205347 562.468383 
L 252.205347 561.946277 
L 251.683241 561.946277 
L 251.683241 561.42417 
L 250.646181 561.42417 
L 250.646181 560.902064 
L 250.124074 560.902064 
L 250.124074 560.379958 
L 249.601968 560.379958 
L 249.601968 559.865004 
L 248.557755 559.865004 
L 248.557755 559.342897 
L 246.998589 559.342897 
L 246.998589 559.865004 
L 246.476483 559.865004 
L 246.476483 560.379958 
L 245.954376 560.379958 
L 245.954376 560.902064 
L 244.39521 560.902064 
L 244.39521 560.379958 
L 243.873103 560.379958 
L 243.873103 559.865004 
L 243.350997 559.865004 
L 243.350997 559.342897 
L 242.828891 559.342897 
L 242.828891 558.820791 
L 239.188451 558.820791 
L 239.188451 558.298685 
L 238.144239 558.298685 
L 238.144239 558.820791 
L 237.100026 558.820791 
L 237.100026 559.342897 
L 235.540859 559.342897 
L 235.540859 559.865004 
L 233.974541 559.865004 
L 233.974541 559.342897 
L 233.459587 559.342897 
L 233.459587 558.298685 
L 232.93748 558.298685 
L 232.93748 557.261625 
L 231.371161 557.261625 
L 231.371161 556.739518 
L 230.856207 556.739518 
L 230.856207 556.217412 
L 227.208616 556.217412 
L 227.208616 555.695306 
L 225.127343 555.695306 
L 225.127343 556.217412 
L 218.354266 556.217412 
L 218.354266 555.695306 
L 217.310053 555.695306 
L 217.310053 555.173199 
L 215.750886 555.173199 
L 215.750886 554.651093 
L 213.669613 554.651093 
L 213.669613 554.136139 
L 211.059082 554.136139 
L 211.059082 553.614033 
L 210.022022 553.614033 
L 210.022022 553.091927 
L 209.499915 553.091927 
L 209.499915 552.56982 
L 207.418642 552.56982 
L 207.418642 552.047714 
L 204.815263 552.047714 
L 204.815263 551.53276 
L 204.293157 551.53276 
L 204.293157 552.047714 
L 203.248944 552.047714 
L 203.248944 552.56982 
L 198.564292 552.56982 
L 198.564292 552.047714 
L 198.042186 552.047714 
L 198.042186 551.53276 
L 197.52008 551.53276 
L 197.52008 551.010654 
L 196.483019 551.010654 
L 196.483019 550.488547 
L 195.960913 550.488547 
L 195.960913 549.966441 
L 194.916701 549.966441 
L 194.916701 548.922229 
L 193.872488 548.922229 
L 193.872488 548.407274 
L 191.269109 548.407274 
L 191.269109 548.922229 
L 188.66573 548.922229 
L 188.66573 548.407274 
L 186.062351 548.407274 
L 186.062351 547.363062 
L 185.540244 547.363062 
L 185.540244 546.840956 
L 185.02529 546.840956 
L 185.02529 546.318849 
L 184.503184 546.318849 
L 184.503184 545.281789 
L 183.981078 545.281789 
L 183.981078 544.237576 
L 183.458971 544.237576 
L 183.458971 543.193364 
L 182.936865 543.193364 
L 182.936865 542.67841 
L 178.774319 542.67841 
L 178.774319 542.156303 
L 178.252213 542.156303 
L 178.252213 540.589985 
L 178.774319 540.589985 
L 178.774319 539.552924 
L 178.252213 539.552924 
L 178.252213 539.030818 
L 177.730107 539.030818 
L 177.730107 538.508712 
L 177.208 538.508712 
L 177.208 537.986606 
L 176.685894 537.986606 
L 176.685894 537.464499 
L 176.17094 537.464499 
L 176.17094 536.427439 
L 176.685894 536.427439 
L 176.685894 535.905333 
L 176.17094 535.905333 
L 176.17094 535.383226 
L 175.648834 535.383226 
L 175.648834 534.86112 
L 174.604621 534.86112 
L 174.604621 534.346166 
L 174.082515 534.346166 
L 174.082515 533.301953 
L 173.567561 533.301953 
L 173.567561 532.779847 
L 173.045455 532.779847 
L 173.045455 532.257741 
L 173.567561 532.257741 
L 173.567561 531.735635 
L 174.082515 531.735635 
L 174.082515 530.698574 
L 173.567561 530.698574 
L 173.567561 528.617301 
L 174.082515 528.617301 
L 174.082515 528.095195 
L 178.774319 528.095195 
L 178.774319 527.573089 
L 180.333486 527.573089 
L 180.333486 527.050982 
L 183.458971 527.050982 
L 183.458971 526.528876 
L 183.981078 526.528876 
L 183.981078 525.491816 
L 184.503184 525.491816 
L 184.503184 524.447603 
L 185.02529 524.447603 
L 185.02529 523.925497 
L 186.062351 523.925497 
L 186.062351 523.403391 
L 186.584457 523.403391 
L 186.584457 522.36633 
L 187.106563 522.36633 
L 187.106563 521.844224 
L 187.628669 521.844224 
L 187.628669 520.800012 
L 188.143623 520.800012 
L 188.143623 520.277905 
L 188.66573 520.277905 
L 188.66573 519.762951 
L 189.709942 519.762951 
L 189.709942 519.240845 
L 191.791215 519.240845 
L 191.791215 518.718739 
L 193.872488 518.718739 
L 193.872488 518.196632 
L 195.960913 518.196632 
L 195.960913 518.718739 
L 198.042186 518.718739 
L 198.042186 518.196632 
L 198.564292 518.196632 
L 198.564292 517.159572 
L 199.601353 517.159572 
L 199.601353 516.637466 
L 200.123459 516.637466 
L 200.123459 515.071147 
L 199.601353 515.071147 
L 199.601353 514.549041 
L 200.123459 514.549041 
L 200.123459 514.034086 
L 200.645565 514.034086 
L 200.645565 513.51198 
L 201.167672 513.51198 
L 201.167672 512.989874 
L 202.726838 512.989874 
L 202.726838 512.467768 
L 203.771051 512.467768 
L 203.771051 511.945661 
L 205.852324 511.945661 
L 205.852324 511.430707 
L 206.37443 511.430707 
L 206.37443 510.908601 
L 205.852324 510.908601 
L 205.852324 510.386495 
L 206.37443 510.386495 
L 206.37443 509.864388 
L 206.896536 509.864388 
L 206.896536 509.342282 
L 207.418642 509.342282 
L 207.418642 508.827328 
L 208.455703 508.820176 
L 208.455703 508.305222 
L 208.977809 508.305222 
L 208.977809 508.820176 
L 209.499915 508.820176 
L 209.499915 508.305222 
L 210.022022 508.305222 
L 210.022022 508.820176 
L 212.103295 508.820176 
L 212.103295 508.305222 
L 212.625401 508.305222 
L 212.625401 508.820176 
L 213.147507 508.820176 
L 213.147507 508.305222 
L 214.184568 508.305222 
L 214.184568 508.820176 
L 215.22878 508.820176 
L 215.22878 508.305222 
L 215.750886 508.305222 
L 215.750886 507.261009 
L 215.22878 507.261009 
L 215.22878 506.738903 
L 214.706674 506.738903 
L 214.706674 505.179736 
L 215.22878 505.179736 
L 215.22878 504.65763 
L 216.787947 504.65763 
L 216.787947 504.135524 
L 217.310053 504.135524 
L 217.310053 503.613418 
L 217.832159 503.613418 
L 217.832159 503.098463 
L 218.354266 503.091311 
L 218.354266 502.054251 
L 218.876372 502.054251 
L 218.876372 501.010038 
L 219.398478 501.010038 
L 219.398478 498.406659 
L 219.913432 498.406659 
L 219.913432 497.884553 
L 220.957645 497.884553 
L 220.957645 496.847493 
L 222.001857 496.847493 
L 222.001857 496.325386 
L 222.516811 496.325386 
L 222.516811 495.80328 
L 223.038918 495.80328 
L 223.038918 494.244113 
L 222.516811 494.244113 
L 222.516811 493.722007 
L 222.001857 493.722007 
L 222.001857 493.199901 
L 220.957645 493.199901 
L 220.957645 492.155688 
L 220.435538 492.155688 
L 220.435538 491.640734 
L 224.08313 491.640734 
L 224.08313 491.118628 
L 225.127343 491.118628 
L 225.127343 490.596522 
L 225.642297 490.596522 
L 225.642297 490.074415 
L 226.686509 490.074415 
L 226.686509 489.552309 
L 227.208616 489.552309 
L 227.208616 489.030203 
L 228.245676 489.030203 
L 228.245676 488.515249 
L 228.767782 488.515249 
L 228.767782 487.993142 
L 229.811995 487.993142 
L 229.811995 487.471036 
L 230.856207 487.471036 
L 230.856207 486.94893 
L 231.893268 486.94893 
L 231.893268 486.426824 
L 232.415374 486.426824 
L 232.415374 485.911869 
L 233.974541 485.911869 
L 233.974541 486.426824 
L 236.585072 486.426824 
L 236.585072 485.911869 
L 237.100026 485.911869 
L 237.100026 484.867657 
L 237.622132 484.867657 
L 237.622132 484.345551 
L 238.144239 484.345551 
L 238.144239 483.823444 
L 241.269724 483.823444 
L 241.269724 483.301338 
L 241.79183 483.301338 
L 241.79183 482.786384 
L 242.313937 482.786384 
L 242.313937 482.264278 
L 242.828891 482.264278 
L 242.828891 481.742171 
L 243.873103 481.742171 
L 243.873103 481.220065 
L 245.43227 481.220065 
L 245.43227 480.697959 
L 245.954376 480.697959 
L 245.954376 480.183005 
L 246.476483 480.183005 
L 246.476483 479.660899 
L 247.520695 479.660899 
L 247.520695 479.138792 
L 248.042801 479.138792 
L 248.042801 478.616686 
L 250.646181 478.616686 
L 250.646181 478.09458 
L 251.161135 478.09458 
L 251.161135 477.572473 
L 251.683241 477.572473 
L 251.683241 477.057519 
L 252.205347 477.057519 
L 252.205347 473.932034 
L 252.727453 473.932034 
L 252.727453 472.887821 
L 253.771666 472.887821 
L 253.771666 472.365715 
L 255.852939 472.365715 
L 255.852939 471.843609 
L 263.663076 471.843609 
L 263.663076 472.365715 
L 267.832774 472.365715 
L 267.832774 471.843609 
L 273.561639 471.843609 
L 273.561639 472.365715 
L 275.120806 472.365715 
L 275.120806 472.887821 
L 282.408837 472.887821 
L 282.408837 473.409928 
L 282.930943 473.409928 
L 282.930943 473.932034 
L 285.019368 473.932034 
L 285.019368 473.409928 
L 291.263187 473.409928 
L 291.263187 473.932034 
L 295.954992 473.932034 
L 295.954992 473.409928 
L 301.16175 473.409928 
L 301.16175 472.887821 
L 301.683856 472.887821 
L 301.683856 470.806548 
L 301.16175 470.806548 
L 301.16175 469.762336 
L 301.683856 469.762336 
L 301.683856 469.24023 
L 302.720917 469.24023 
L 302.720917 468.725276 
L 303.765129 468.725276 
L 303.765129 468.203169 
L 304.287235 468.203169 
L 304.287235 467.681063 
L 306.368508 467.681063 
L 306.368508 467.158957 
L 306.890615 467.158957 
L 306.890615 466.63685 
L 307.412721 466.63685 
L 307.412721 466.114744 
L 310.0161 466.114744 
L 310.0161 465.59979 
L 310.538206 465.59979 
L 310.538206 464.555578 
L 311.05316 464.555578 
L 311.05316 464.033471 
L 311.575267 464.033471 
L 311.575267 462.996411 
L 312.097373 462.996411 
L 312.097373 462.474305 
L 312.619479 462.474305 
L 312.619479 461.952198 
L 313.663692 461.952198 
L 313.663692 461.430092 
L 315.222858 461.430092 
L 315.222858 460.907986 
L 315.744965 460.907986 
L 315.744965 460.38588 
L 316.267071 460.38588 
L 316.267071 459.348819 
L 315.744965 459.348819 
L 315.744965 458.826713 
L 315.222858 458.826713 
L 315.222858 458.304607 
L 314.700752 458.304607 
L 314.700752 457.7825 
L 314.178646 457.7825 
L 314.178646 456.223334 
L 314.700752 456.223334 
L 314.700752 455.701227 
L 314.178646 455.701227 
L 314.178646 453.097848 
L 314.700752 453.097848 
L 314.700752 452.053636 
L 315.222858 452.053636 
L 315.222858 451.016575 
L 317.304131 451.016575 
L 317.304131 450.494469 
L 318.348344 450.494469 
L 318.348344 448.413196 
L 317.826238 448.413196 
L 317.826238 446.324771 
L 317.304131 446.324771 
L 317.304131 445.287711 
L 316.267071 445.287711 
L 316.267071 445.809817 
L 315.222858 445.809817 
L 315.222858 446.324771 
L 314.700752 446.324771 
L 314.700752 445.809817 
L 311.575267 445.809817 
L 311.575267 446.324771 
L 310.0161 446.324771 
L 310.0161 446.846877 
L 308.449781 446.846877 
L 308.449781 447.368984 
L 306.368508 447.368984 
L 306.368508 447.89109 
L 304.287235 447.89109 
L 304.287235 448.413196 
L 301.16175 448.413196 
L 301.16175 448.92815 
L 300.639644 448.92815 
L 300.639644 448.413196 
L 298.036264 448.413196 
L 298.036264 448.92815 
L 296.477098 448.92815 
L 296.477098 449.450256 
L 294.910779 449.450256 
L 294.910779 448.92815 
L 291.785294 448.92815 
L 291.785294 448.413196 
L 289.704021 448.413196 
L 289.704021 448.92815 
L 283.975156 448.92815 
L 283.975156 449.972363 
L 282.930943 449.972363 
L 282.930943 449.450256 
L 282.408837 449.450256 
L 282.408837 449.972363 
L 279.805458 449.972363 
L 279.805458 449.450256 
L 276.687125 449.450256 
L 276.687125 448.92815 
L 276.165018 448.92815 
L 276.165018 448.413196 
L 275.642912 448.413196 
L 275.642912 447.89109 
L 274.5987 447.89109 
L 274.5987 447.368984 
L 274.076593 447.368984 
L 274.076593 446.846877 
L 273.039533 446.846877 
L 273.039533 446.324771 
L 271.99532 446.324771 
L 271.99532 445.809817 
L 271.473214 445.809817 
L 271.473214 445.287711 
L 270.95826 445.287711 
L 270.95826 444.765604 
L 270.436154 444.765604 
L 270.436154 444.243498 
L 267.832774 444.243498 
L 267.832774 443.721392 
L 266.788562 443.721392 
L 266.788562 443.199286 
L 265.744349 443.199286 
L 265.744349 442.684331 
L 265.229395 442.684331 
L 265.229395 442.162225 
L 264.707289 442.162225 
L 264.707289 441.640119 
L 264.185183 441.640119 
L 264.185183 439.558846 
L 263.663076 439.558846 
L 263.663076 439.158326 
L 265.908849 438.83648 
L 271.766452 436.326078 
L 273.475813 434.652477 
L 282.873726 418.731812 
L 299.051868 401.008808 
L 312.576566 389.157711 
L 328.42571 378.408043 
L 332.280714 374.574496 
L 334.125966 369.117413 
L 334.269009 365.83458 
L 333.196188 358.832635 
L 330.514135 351.651885 
L 325.68644 343.627184 
L 339.275507 339.643441 
L 348.408791 338.706511 
L 362.541421 338.77088 
L 376.43803 340.158395 
L 385.099272 341.975039 
L 392.694846 344.857352 
L 402.700691 351.072562 
L 406.319674 352.667489 
L 414.516027 354.956174 
L 423.463355 356.350842 
L 437.467246 357.223403 
L 451.442529 356.629775 
L 460.311183 354.999087 
L 469.623271 351.694798 
L 480.322873 367.43666 
L 485.179177 373.430154 
L 489.885285 377.692829 
L 503.839111 387.519871 
L 517.356657 400.779939 
L 522.863806 404.549118 
L 542.811126 415.634936 
L 550.692785 418.32414 
L 558.688878 419.454179 
L 566.277299 419.110876 
L 572.921638 417.043907 
L 588.334501 403.740926 
L 596.180399 392.440543 
L 602.488587 386.139508 
L 610.813679 380.904141 
L 634.63746 370.347581 
L 647.060728 367.400899 
L 660.478144 366.778663 
L 678.952123 367.594007 
L 701.452757 370.154473 
L 714.7915 381.80531 
L 745.259619 410.192156 
L 754.106817 417.723361 
L 760.300571 422.243513 
L 763.54049 424.246113 
L 769.905896 427.271468 
L 792.814202 435.188888 
L 817.253067 445.909947 
L 818.66919 452.439851 
L 820.142531 455.222034 
L 832.930559 466.63685 
L 837.17893 472.093934 
L 838.795314 475.119289 
L 840.833674 483.47299 
L 841.083999 496.10367 
L 844.130811 509.728498 
L 851.762145 528.073739 
L 855.609997 543.837057 
L 858.134702 549.301292 
L 871.037164 563.913115 
L 878.647042 570.185543 
L 885.033903 577.3949 
L 892.650933 583.710241 
L 898.844687 591.084098 
L 905.517634 597.721284 
L 908.957814 605.803203 
L 924.928544 620.429331 
L 928.025421 622.195909 
L 933.954545 623.876662 
L 933.940241 624.441682 
L 931.851816 624.441682 
L 931.851816 624.963788 
L 930.292649 624.963788 
L 930.292649 625.485894 
L 928.211377 625.485894 
L 928.211377 626.000848 
L 927.167164 626.000848 
L 927.167164 626.522955 
L 926.122951 626.522955 
L 926.122951 627.045061 
L 925.600845 627.045061 
L 925.600845 627.567167 
L 925.085891 627.567167 
L 925.085891 628.089273 
L 924.563785 628.089273 
L 924.563785 628.61138 
L 924.041679 628.61138 
L 924.041679 629.126334 
L 922.482512 629.126334 
L 922.482512 629.64844 
L 921.960406 629.64844 
L 921.960406 630.170546 
L 917.790708 630.170546 
L 917.790708 630.692653 
L 917.268601 630.692653 
L 917.268601 631.729713 
L 916.231541 631.729713 
L 916.231541 632.251819 
L 915.709435 632.251819 
L 915.709435 632.773925 
L 911.024783 632.773925 
L 911.024783 633.296032 
L 909.458464 633.296032 
L 909.458464 633.818138 
L 908.936357 633.818138 
L 908.936357 635.377305 
L 908.414251 635.377305 
L 908.414251 635.899411 
L 907.899297 635.899411 
L 907.899297 636.421517 
L 906.332978 636.421517 
L 906.332978 636.943623 
L 904.773812 636.943623 
L 904.773812 637.458578 
L 903.207493 637.458578 
L 903.207493 637.980684 
L 902.170432 637.980684 
L 902.170432 638.50279 
L 900.604114 638.50279 
L 900.604114 639.024896 
L 899.567053 639.024896 
L 899.567053 639.547003 
L 898.522841 639.547003 
L 898.522841 640.069109 
L 897.478628 640.069109 
L 897.478628 640.584063 
L 895.919462 640.584063 
L 895.919462 641.106169 
L 894.353143 641.106169 
L 894.353143 641.628276 
L 893.838189 641.628276 
L 893.838189 642.150382 
L 891.749764 642.150382 
L 891.749764 642.672488 
L 889.668491 642.672488 
L 889.668491 643.187442 
L 888.624278 643.187442 
L 888.624278 643.709548 
L 887.587218 643.709548 
L 887.587218 644.231655 
L 885.498793 644.231655 
L 885.498793 644.753761 
L 884.983838 644.753761 
L 884.983838 645.275867 
L 884.461732 645.275867 
L 884.461732 645.797974 
L 883.939626 645.797974 
L 883.939626 646.312928 
L 883.41752 646.312928 
L 883.41752 646.835034 
L 882.895413 646.835034 
L 882.895413 647.35714 
L 880.292034 647.35714 
L 880.292034 647.879246 
L 879.769928 647.879246 
L 879.769928 648.401353 
L 878.732868 648.401353 
L 878.732868 648.916307 
L 878.210761 648.916307 
L 878.210761 649.960519 
L 877.166549 649.960519 
L 877.166549 650.482626 
L 876.651595 650.482626 
L 876.651595 651.004732 
L 875.607382 651.004732 
L 875.607382 651.526838 
L 875.085276 651.526838 
L 875.085276 652.041792 
L 874.041063 652.041792 
L 874.041063 652.563899 
L 872.481897 652.563899 
L 872.481897 653.086005 
L 871.95979 653.086005 
L 871.95979 654.130217 
L 871.437684 654.130217 
L 871.437684 654.645172 
L 870.92273 654.645172 
L 870.92273 655.167278 
L 870.400624 655.167278 
L 870.400624 655.689384 
L 869.878517 655.689384 
L 869.878517 656.21149 
L 869.356411 656.21149 
L 869.356411 656.733597 
L 868.834305 656.733597 
L 868.834305 657.255703 
L 868.312199 657.255703 
L 868.312199 657.770657 
L 867.797245 657.770657 
L 867.797245 658.292763 
L 867.275138 658.292763 
L 867.275138 658.81487 
L 866.753032 658.81487 
L 866.753032 659.336976 
L 866.230926 659.336976 
L 866.230926 659.859082 
L 865.193865 659.859082 
L 865.193865 660.374036 
L 864.671759 660.374036 
L 864.671759 660.896142 
L 864.149653 660.896142 
L 864.149653 662.984568 
L 863.627547 662.984568 
L 863.627547 663.499522 
L 861.546274 663.499522 
L 861.546274 664.021628 
L 858.420788 664.021628 
L 858.420788 664.543734 
L 857.376576 664.543734 
L 857.376576 665.06584 
L 855.295303 665.06584 
L 855.295303 664.543734 
L 854.773196 664.543734 
L 854.773196 664.021628 
L 854.25109 664.021628 
L 854.25109 662.984568 
L 854.773196 662.984568 
L 854.773196 662.462461 
L 855.295303 662.462461 
L 855.295303 661.940355 
L 852.691923 661.940355 
L 852.691923 662.984568 
L 852.169817 662.984568 
L 852.169817 663.499522 
L 851.132757 663.499522 
L 851.132757 664.021628 
L 850.610651 664.021628 
L 850.610651 664.543734 
L 849.566438 664.543734 
L 849.566438 665.06584 
L 846.963059 665.06584 
L 846.963059 664.543734 
L 846.440953 664.543734 
L 846.440953 662.984568 
L 846.963059 662.984568 
L 846.963059 660.374036 
L 845.918846 660.374036 
L 845.918846 658.81487 
L 845.403892 658.81487 
L 845.403892 658.292763 
L 843.315467 658.292763 
L 843.315467 658.81487 
L 841.7563 658.81487 
L 841.7563 658.292763 
L 839.675027 658.292763 
L 839.675027 658.81487 
L 839.152921 658.81487 
L 839.152921 659.336976 
L 838.630815 659.336976 
L 838.630815 659.859082 
L 838.108709 659.859082 
L 838.108709 660.374036 
L 837.586602 660.374036 
L 837.586602 660.896142 
L 837.064496 660.896142 
L 837.064496 661.418249 
L 834.461117 661.418249 
L 834.461117 662.462461 
L 833.946163 662.462461 
L 833.946163 662.984568 
L 833.424057 662.984568 
L 833.424057 664.021628 
L 832.90195 664.021628 
L 832.90195 664.543734 
L 832.379844 664.543734 
L 832.379844 665.06584 
L 831.335632 665.06584 
L 831.335632 665.587947 
L 829.776465 665.587947 
L 829.776465 666.102901 
L 828.217298 666.102901 
L 828.217298 665.587947 
L 827.695192 665.587947 
L 827.695192 662.984568 
L 827.173086 662.984568 
L 827.173086 661.940355 
L 826.650979 661.940355 
L 826.650979 659.336976 
L 826.128873 659.336976 
L 826.128873 658.292763 
L 825.606767 658.292763 
L 825.606767 657.770657 
L 825.091813 657.770657 
L 825.091813 657.255703 
L 824.569706 657.255703 
L 824.569706 656.733597 
L 824.0476 656.733597 
L 824.0476 656.21149 
L 823.525494 656.21149 
L 823.525494 655.689384 
L 822.488434 655.689384 
L 822.488434 656.21149 
L 821.966327 656.21149 
L 821.966327 656.733597 
L 817.796629 656.733597 
L 817.796629 657.255703 
L 815.715356 657.255703 
L 815.715356 656.733597 
L 815.19325 656.733597 
L 815.19325 655.689384 
L 814.671144 655.689384 
L 814.671144 655.167278 
L 812.067765 655.167278 
L 812.067765 655.689384 
L 809.464385 655.689384 
L 809.464385 656.21149 
L 806.3389 656.21149 
L 806.3389 656.733597 
L 804.779733 656.733597 
L 804.779733 657.255703 
L 804.257627 657.255703 
L 804.257627 657.770657 
L 803.735521 657.770657 
L 803.735521 659.336976 
L 803.213414 659.336976 
L 803.213414 659.859082 
L 802.176354 659.859082 
L 802.176354 659.336976 
L 801.654248 659.336976 
L 801.654248 659.859082 
L 800.087929 659.859082 
L 800.087929 659.336976 
L 799.572975 659.336976 
L 799.572975 658.81487 
L 797.48455 658.81487 
L 797.48455 659.336976 
L 796.962444 659.336976 
L 796.962444 660.374036 
L 795.403277 660.374036 
L 795.403277 660.896142 
L 794.881171 660.896142 
L 794.881171 660.374036 
L 793.84411 660.374036 
L 793.84411 660.896142 
L 792.799898 660.896142 
L 792.799898 660.374036 
L 790.718625 660.374036 
L 790.718625 658.81487 
L 790.196519 658.81487 
L 790.196519 658.292763 
L 786.026821 658.292763 
L 786.026821 657.770657 
L 784.98976 657.770657 
L 784.98976 657.255703 
L 777.17247 657.255703 
L 777.17247 657.770657 
L 775.613304 657.770657 
L 775.613304 658.292763 
L 773.009925 658.292763 
L 773.009925 658.81487 
L 771.965712 658.81487 
L 771.965712 659.336976 
L 772.487818 659.336976 
L 772.487818 660.896142 
L 771.965712 660.896142 
L 771.965712 661.418249 
L 766.236847 661.418249 
L 766.236847 660.896142 
L 765.714741 660.896142 
L 765.714741 660.374036 
L 764.677681 660.374036 
L 764.677681 659.859082 
L 763.111362 659.859082 
L 763.111362 659.336976 
L 762.074302 659.336976 
L 762.074302 659.859082 
L 760.507983 659.859082 
L 760.507983 660.374036 
L 759.985876 660.374036 
L 759.985876 660.896142 
L 758.42671 660.896142 
L 758.42671 661.418249 
L 757.382497 661.418249 
L 757.382497 661.940355 
L 756.860391 661.940355 
L 756.860391 662.462461 
L 756.345437 662.462461 
L 756.345437 662.984568 
L 754.257012 662.984568 
L 754.257012 663.499522 
L 752.697845 663.499522 
L 752.697845 664.021628 
L 752.175739 664.021628 
L 752.175739 665.587947 
L 751.653633 665.587947 
L 751.653633 666.102901 
L 751.131526 666.102901 
L 751.131526 666.625007 
L 750.616572 666.625007 
L 750.616572 668.713432 
L 751.653633 668.713432 
L 751.653633 669.228386 
L 752.697845 669.228386 
L 752.697845 669.750493 
L 753.219951 669.750493 
L 753.219951 670.794705 
L 753.742058 670.794705 
L 753.742058 672.875978 
L 753.219951 672.875978 
L 753.219951 673.398084 
L 752.175739 673.398084 
L 752.175739 672.875978 
L 751.653633 672.875978 
L 751.653633 673.398084 
L 751.131526 673.398084 
L 751.131526 673.920191 
L 750.616572 673.920191 
L 750.616572 674.442297 
L 749.57236 674.442297 
L 749.57236 674.957251 
L 749.050253 674.957251 
L 749.050253 676.001463 
L 749.57236 676.001463 
L 749.57236 677.56063 
L 749.050253 677.56063 
L 749.050253 678.082736 
L 746.96898 678.082736 
L 746.96898 677.56063 
L 746.446874 677.56063 
L 746.446874 677.045676 
L 745.924768 677.045676 
L 745.924768 676.001463 
L 742.284328 676.001463 
L 742.284328 675.479357 
L 740.71801 675.479357 
L 740.71801 674.957251 
L 740.195903 674.957251 
L 740.195903 673.920191 
L 735.511251 673.920191 
L 735.511251 674.442297 
L 734.989145 674.442297 
L 734.989145 675.479357 
L 733.952085 675.479357 
L 733.952085 676.001463 
L 733.429978 676.001463 
L 733.429978 677.56063 
L 735.511251 677.56063 
L 735.511251 678.082736 
L 736.033357 678.082736 
L 736.033357 679.126949 
L 737.070418 679.126949 
L 737.070418 678.082736 
L 737.592524 678.082736 
L 737.592524 677.56063 
L 740.195903 677.56063 
L 740.195903 678.082736 
L 740.71801 678.082736 
L 740.71801 678.604843 
L 741.240116 678.604843 
L 741.240116 679.126949 
L 741.762222 679.126949 
L 741.762222 681.730328 
L 741.240116 681.730328 
L 741.240116 682.252434 
L 740.71801 682.252434 
L 740.71801 682.774541 
L 739.680949 682.774541 
L 739.673797 683.811601 
L 739.158843 683.811601 
L 739.158843 684.333707 
L 738.636737 684.333707 
L 738.636737 684.855814 
L 737.592524 684.855814 
L 737.592524 685.37792 
L 737.070418 685.37792 
L 737.070418 685.900026 
L 736.555464 685.900026 
L 736.555464 686.41498 
L 736.033357 686.41498 
L 736.033357 686.937087 
L 735.511251 686.937087 
L 735.511251 687.459193 
L 734.989145 687.459193 
L 734.989145 687.981299 
L 732.385766 687.981299 
L 732.385766 687.459193 
L 731.863659 687.459193 
L 731.863659 686.937087 
L 730.826599 686.937087 
L 730.826599 686.41498 
L 726.134795 686.41498 
L 726.134795 686.937087 
L 725.097734 686.937087 
L 725.097734 687.459193 
L 722.494355 687.459193 
L 722.494355 686.937087 
L 721.450143 686.937087 
L 721.450143 686.41498 
L 720.40593 686.41498 
L 720.40593 685.900026 
L 719.883824 685.900026 
L 719.883824 683.811601 
L 718.324657 683.811601 
L 718.324657 683.289495 
L 715.721278 683.289495 
L 715.721278 683.811601 
L 715.199172 683.811601 
L 715.199172 684.333707 
L 713.640005 684.333707 
L 713.640005 685.37792 
L 713.117899 685.37792 
L 713.117899 685.900026 
L 712.595793 685.900026 
L 712.595793 686.41498 
L 712.073686 686.41498 
L 712.073686 686.937087 
L 711.036626 686.937087 
L 711.036626 687.459193 
L 710.51452 687.459193 
L 710.51452 687.981299 
L 709.470307 687.981299 
L 709.470307 688.503405 
L 708.948201 688.503405 
L 708.948201 689.018359 
L 708.426095 689.018359 
L 708.426095 689.540466 
L 707.91114 689.540466 
L 707.91114 690.062572 
L 707.389034 690.062572 
L 707.389034 690.584678 
L 706.866928 690.584678 
L 706.866928 691.628891 
L 706.344822 691.628891 
L 706.344822 692.143845 
L 705.822715 692.143845 
L 705.822715 692.665951 
L 704.785655 692.665951 
L 704.785655 693.188057 
L 703.741442 693.188057 
L 703.741442 699.439028 
L 704.263549 699.439028 
L 704.263549 699.961135 
L 705.307761 699.961135 
L 705.307761 700.998195 
L 704.263549 700.998195 
L 704.263549 701.520301 
L 703.741442 701.520301 
L 703.741442 702.564514 
L 703.219336 702.564514 
L 703.219336 703.601574 
L 702.69723 703.601574 
L 702.69723 704.645787 
L 702.182276 704.645787 
L 702.182276 706.204953 
L 701.138063 706.204953 
L 701.138063 706.72706 
L 700.615957 706.72706 
L 700.615957 707.249166 
L 700.093851 707.249166 
L 700.093851 707.771272 
L 699.578897 707.771272 
L 699.578897 708.293379 
L 699.05679 708.293379 
L 699.05679 708.815485 
L 698.534684 708.815485 
L 698.534684 709.330439 
L 698.012578 709.330439 
L 698.012578 710.896758 
L 697.490472 710.896758 
L 697.490472 711.418864 
L 696.968365 711.418864 
L 696.968365 711.933818 
L 696.453411 711.933818 
L 696.453411 712.455924 
L 695.931305 712.455924 
L 695.931305 712.978031 
L 695.409199 712.978031 
L 695.409199 713.500137 
L 693.850032 713.500137 
L 693.850032 714.022243 
L 693.327926 714.022243 
L 693.327926 714.544349 
L 692.805819 714.544349 
L 692.805819 715.059304 
L 692.283713 715.059304 
L 692.283713 715.58141 
L 691.239501 715.58141 
L 691.239501 716.103516 
L 690.724546 716.103516 
L 690.724546 716.625622 
L 690.20244 716.625622 
L 690.20244 717.147729 
L 689.680334 717.147729 
L 689.680334 717.662683 
L 688.636121 717.662683 
L 688.636121 718.184789 
L 688.121167 718.184789 
L 688.121167 718.706895 
L 687.599061 718.706895 
L 687.599061 719.229002 
L 687.076955 719.229002 
L 687.076955 720.273214 
L 686.554848 720.273214 
L 686.554848 722.876593 
L 686.032742 722.876593 
L 686.032742 723.913654 
L 685.510636 723.913654 
L 685.510636 727.561245 
L 684.995682 727.561245 
L 684.995682 728.083352 
L 685.510636 728.083352 
L 685.510636 729.120412 
L 684.473576 729.120412 
L 684.473576 730.164625 
L 683.951469 730.164625 
L 683.951469 730.686731 
L 683.429363 730.686731 
L 683.429363 732.768004 
L 683.951469 732.768004 
L 683.951469 734.849277 
L 683.429363 734.849277 
L 683.429363 735.371383 
L 682.907257 735.371383 
L 682.907257 735.893489 
L 680.825984 735.893489 
L 680.825984 735.371383 
L 680.303878 735.371383 
L 680.303878 733.812216 
L 680.825984 733.812216 
L 680.825984 733.218589 
L 680.825984 731.730943 
L 679.781771 731.723791 
L 679.781771 731.208837 
L 678.744711 731.208837 
L 678.744711 730.686731 
L 678.222605 730.686731 
L 678.222605 729.120412 
L 678.744711 729.120412 
L 678.744711 727.561245 
L 679.266817 727.561245 
L 679.266817 727.039139 
L 679.781771 727.039139 
L 679.781771 726.517033 
L 680.303878 726.517033 
L 680.303878 726.002079 
L 680.825984 726.002079 
L 680.825984 725.479972 
L 681.34809 725.479972 
L 681.34809 722.876593 
L 680.825984 722.876593 
L 680.825984 722.354487 
L 679.266817 722.354487 
L 679.266817 721.310274 
L 678.222605 721.310274 
L 678.222605 720.788168 
L 677.700498 720.788168 
L 677.700498 720.273214 
L 677.178392 720.273214 
L 677.178392 719.229002 
L 676.663438 719.229002 
L 676.663438 718.706895 
L 675.619225 718.706895 
L 675.619225 718.184789 
L 675.097119 718.184789 
L 675.097119 717.662683 
L 674.575013 717.662683 
L 674.575013 717.147729 
L 674.052907 717.147729 
L 674.052907 716.625622 
L 673.537952 716.625622 
L 673.537952 716.103516 
L 673.015846 716.103516 
L 673.015846 715.58141 
L 671.449527 715.58141 
L 671.449527 715.059304 
L 670.412467 715.059304 
L 670.412467 714.544349 
L 669.890361 714.544349 
L 669.890361 714.022243 
L 668.324042 714.022243 
L 668.324042 713.500137 
L 667.809088 713.500137 
L 667.809088 712.978031 
L 666.242769 712.978031 
L 666.242769 712.455924 
L 663.63939 712.455924 
L 663.63939 711.933818 
L 661.036011 711.933818 
L 661.036011 711.418864 
L 659.991798 711.418864 
L 659.991798 710.896758 
L 659.476844 710.896758 
L 659.476844 710.374651 
L 658.954738 710.374651 
L 658.954738 708.815485 
L 659.476844 708.815485 
L 659.476844 707.771272 
L 659.991798 707.771272 
L 659.991798 707.249166 
L 660.513904 707.249166 
L 660.513904 704.645787 
L 659.991798 704.645787 
L 659.991798 703.601574 
L 659.476844 703.601574 
L 659.476844 703.08662 
L 658.954738 703.08662 
L 658.954738 701.520301 
L 659.476844 701.520301 
L 659.476844 700.998195 
L 660.513904 700.998195 
L 660.513904 700.476089 
L 661.036011 700.476089 
L 661.036011 699.961135 
L 661.558117 699.961135 
L 661.558117 699.439028 
L 662.080223 699.439028 
L 662.080223 698.916922 
L 663.63939 698.916922 
L 663.63939 698.394816 
L 664.161496 698.394816 
L 664.161496 697.87271 
L 664.683602 697.87271 
L 664.683602 694.23227 
L 664.161496 694.23227 
L 664.161496 693.710164 
L 663.117284 693.710164 
L 663.117284 693.188057 
L 661.558117 693.188057 
L 661.558117 692.665951 
L 660.513904 692.665951 
L 660.513904 692.143845 
L 658.954738 692.143845 
L 658.954738 691.106785 
L 658.432631 691.106785 
L 658.432631 690.584678 
L 652.703767 690.584678 
L 652.703767 691.106785 
L 652.181661 691.106785 
L 652.181661 690.584678 
L 645.93069 690.584678 
L 645.93069 691.106785 
L 642.29025 691.106785 
L 642.29025 691.628891 
L 639.164765 691.628891 
L 639.164765 692.143845 
L 638.120552 692.143845 
L 638.120552 692.665951 
L 636.561385 692.665951 
L 636.561385 693.188057 
L 633.4359 693.188057 
L 633.4359 693.710164 
L 631.869581 693.710164 
L 631.869581 693.188057 
L 630.832521 693.188057 
L 630.832521 692.665951 
L 629.266202 692.665951 
L 629.266202 692.143845 
L 628.229142 692.143845 
L 628.229142 691.628891 
L 625.61861 691.628891 
L 625.61861 691.106785 
L 625.103656 691.106785 
L 625.103656 690.584678 
L 623.015231 690.584678 
L 623.015231 690.062572 
L 622.500277 690.062572 
L 622.500277 689.540466 
L 620.411852 689.540466 
L 620.411852 689.018359 
L 619.374791 689.018359 
L 619.374791 688.503405 
L 618.330579 688.503405 
L 618.330579 689.018359 
L 615.7272 689.018359 
L 615.7272 688.503405 
L 614.160881 688.503405 
L 614.160881 687.981299 
L 611.042548 687.981299 
L 611.042548 687.459193 
L 608.432016 687.459193 
L 608.432016 686.937087 
L 607.394956 686.937087 
L 607.394956 686.41498 
L 606.87285 686.41498 
L 606.87285 685.37792 
L 606.350743 685.37792 
L 606.350743 684.855814 
L 605.313683 684.855814 
L 605.313683 684.333707 
L 602.188197 684.333707 
L 602.188197 683.811601 
L 601.666091 683.811601 
L 601.666091 683.289495 
L 601.143985 683.289495 
L 601.143985 683.811601 
L 593.855954 683.811601 
L 593.855954 684.333707 
L 593.333847 684.333707 
L 593.333847 684.855814 
L 591.245422 684.855814 
L 591.245422 685.37792 
L 588.642043 685.37792 
L 588.642043 685.900026 
L 587.082876 685.900026 
L 587.082876 684.855814 
L 586.56077 684.855814 
L 586.56077 684.333707 
L 585.516558 684.333707 
L 585.516558 683.811601 
L 585.001603 683.811601 
L 585.001603 683.289495 
L 583.993152 683.289495 
L 581.876118 683.289495 
L 581.876118 681.208222 
L 581.354012 681.208222 
L 581.354012 680.686116 
L 580.309799 680.686116 
L 580.309799 680.171161 
L 579.787693 680.171161 
L 579.787693 680.686116 
L 578.750633 680.686116 
L 578.750633 680.171161 
L 577.70642 680.171161 
L 577.70642 679.649055 
L 577.184314 679.649055 
L 577.184314 678.082736 
L 576.66936 678.082736 
L 576.66936 677.045676 
L 576.147253 677.045676 
L 576.147253 676.001463 
L 575.625147 676.001463 
L 575.625147 675.479357 
L 575.103041 675.479357 
L 575.103041 674.957251 
L 574.580935 674.957251 
L 574.580935 674.442297 
L 573.543874 674.442297 
L 573.543874 673.920191 
L 573.021768 673.920191 
L 573.021768 673.398084 
L 571.977555 673.398084 
L 571.977555 672.875978 
L 570.418389 672.875978 
L 570.418389 672.353872 
L 569.896282 672.353872 
L 569.896282 671.831766 
L 570.418389 671.831766 
L 570.418389 670.272599 
L 570.940495 670.272599 
L 570.940495 669.750493 
L 575.103041 669.750493 
L 575.103041 670.272599 
L 575.625147 670.272599 
L 575.625147 669.750493 
L 576.147253 669.750493 
L 576.147253 669.228386 
L 577.70642 669.228386 
L 577.70642 669.750493 
L 578.228526 669.750493 
L 578.228526 670.272599 
L 578.750633 670.272599 
L 578.750633 670.794705 
L 579.272739 670.794705 
L 579.272739 671.316811 
L 579.787693 671.316811 
L 579.787693 671.831766 
L 580.309799 671.831766 
L 580.309799 672.353872 
L 580.831905 672.353872 
L 580.831905 671.831766 
L 581.354012 671.831766 
L 581.354012 670.272599 
L 580.831905 670.272599 
L 580.831905 669.750493 
L 580.309799 669.750493 
L 580.309799 666.102901 
L 582.398224 666.102901 
L 582.398224 666.625007 
L 582.913178 666.625007 
L 582.913178 667.147113 
L 582.398224 667.147113 
L 582.398224 667.66922 
L 581.876118 667.66922 
L 581.876118 669.228386 
L 582.398224 669.228386 
L 582.398224 670.794705 
L 582.913178 670.794705 
L 582.913178 671.831766 
L 583.435285 671.831766 
L 583.435285 672.353872 
L 586.56077 672.353872 
L 586.56077 671.831766 
L 587.082876 671.831766 
L 587.082876 671.316811 
L 587.604983 671.316811 
L 587.604983 670.794705 
L 589.686256 670.794705 
L 589.686256 670.272599 
L 592.811741 670.272599 
L 592.811741 669.750493 
L 593.333847 669.750493 
L 593.333847 667.66922 
L 592.811741 667.66922 
L 592.811741 667.147113 
L 592.289635 667.147113 
L 592.289635 666.625007 
L 591.767529 666.625007 
L 591.767529 665.587947 
L 591.245422 665.587947 
L 591.245422 665.06584 
L 590.730468 665.06584 
L 590.730468 664.543734 
L 590.208362 664.543734 
L 590.208362 661.940355 
L 592.289635 661.940355 
L 592.289635 661.418249 
L 592.811741 661.418249 
L 592.811741 661.940355 
L 593.333847 661.940355 
L 593.333847 662.462461 
L 594.370908 662.462461 
L 594.370908 662.984568 
L 594.893014 662.984568 
L 594.893014 663.499522 
L 595.41512 663.499522 
L 595.41512 665.06584 
L 595.937227 665.06584 
L 595.937227 665.587947 
L 596.974287 665.587947 
L 596.974287 666.102901 
L 599.584818 666.102901 
L 599.584818 665.587947 
L 602.703152 665.587947 
L 602.703152 665.06584 
L 603.225258 665.06584 
L 603.225258 663.499522 
L 603.747364 663.499522 
L 603.747364 662.984568 
L 608.432016 662.984568 
L 608.432016 663.499522 
L 611.042548 663.499522 
L 611.042548 662.984568 
L 612.079608 662.984568 
L 612.079608 662.462461 
L 612.601714 662.462461 
L 612.601714 662.984568 
L 613.12382 662.984568 
L 613.12382 662.462461 
L 613.645927 662.462461 
L 613.645927 661.940355 
L 614.160881 661.940355 
L 614.160881 661.38964 
L 614.160881 659.336976 
L 613.645927 659.336976 
L 613.645927 658.81487 
L 612.601714 658.81487 
L 612.601714 659.336976 
L 612.079608 659.336976 
L 612.079608 659.859082 
L 611.557502 659.859082 
L 611.557502 660.374036 
L 611.042548 660.374036 
L 611.042548 660.896142 
L 610.520441 660.896142 
L 610.520441 660.374036 
L 609.998335 660.374036 
L 609.998335 658.81487 
L 609.476229 658.81487 
L 609.476229 657.255703 
L 611.557502 657.255703 
L 611.557502 656.733597 
L 615.205093 656.733597 
L 615.205093 656.21149 
L 616.249306 656.21149 
L 616.249306 655.689384 
L 616.771412 655.689384 
L 616.771412 655.167278 
L 616.249306 655.167278 
L 616.249306 654.645172 
L 614.682987 654.645172 
L 614.682987 655.167278 
L 613.12382 655.167278 
L 613.12382 654.645172 
L 612.079608 654.645172 
L 612.079608 653.608111 
L 611.557502 653.608111 
L 611.557502 653.086005 
L 612.079608 653.086005 
L 612.079608 652.563899 
L 614.160881 652.563899 
L 614.160881 652.041792 
L 614.682987 652.041792 
L 614.682987 650.482626 
L 614.160881 650.482626 
L 614.160881 649.960519 
L 611.042548 649.960519 
L 611.042548 645.275867 
L 610.520441 645.275867 
L 610.520441 644.753761 
L 609.998335 644.753761 
L 609.998335 643.187442 
L 613.12382 643.187442 
L 613.12382 642.672488 
L 613.645927 642.672488 
L 613.645927 642.150382 
L 614.160881 642.150382 
L 614.160881 641.628276 
L 614.682987 641.628276 
L 614.682987 641.106169 
L 615.205093 641.106169 
L 615.205093 640.584063 
L 614.682987 640.584063 
L 614.682987 640.069109 
L 614.160881 640.069109 
L 614.160881 640.584063 
L 613.645927 640.584063 
L 613.645927 640.069109 
L 612.079608 640.069109 
L 612.079608 640.584063 
L 609.476229 640.584063 
L 609.476229 639.024896 
L 609.998335 639.024896 
L 609.998335 638.50279 
L 611.042548 638.50279 
L 611.042548 637.980684 
L 611.557502 637.980684 
L 611.557502 635.899411 
L 611.042548 635.899411 
L 611.042548 635.377305 
L 610.520441 635.377305 
L 610.520441 634.855198 
L 609.998335 634.855198 
L 609.998335 634.340244 
L 609.476229 634.340244 
L 609.476229 633.296032 
L 608.954122 633.296032 
L 608.954122 632.251819 
L 608.432016 632.251819 
L 608.432016 631.729713 
L 607.917062 631.729713 
L 607.917062 631.214759 
L 605.313683 631.214759 
L 605.313683 630.692653 
L 602.703152 630.692653 
L 602.703152 630.170546 
L 602.188197 630.170546 
L 602.188197 629.64844 
L 601.666091 629.64844 
L 601.666091 629.126334 
L 601.143985 629.126334 
L 601.143985 628.61138 
L 600.621879 628.61138 
L 600.621879 628.089273 
L 599.584818 628.089273 
L 599.584818 627.567167 
L 598.018499 627.567167 
L 598.018499 627.045061 
L 596.974287 627.045061 
L 596.974287 626.522955 
L 596.459333 626.522955 
L 596.459333 626.000848 
L 595.937227 626.000848 
L 595.937227 625.485894 
L 595.41512 625.485894 
L 595.41512 624.963788 
L 594.370908 624.963788 
L 594.370908 624.441682 
L 593.855954 624.441682 
L 593.855954 623.919575 
L 592.811741 623.919575 
L 592.811741 623.397469 
L 591.245422 623.397469 
L 591.245422 621.838302 
L 590.730468 621.838302 
L 590.730468 621.316196 
L 590.208362 621.316196 
L 590.208362 620.79409 
L 589.686256 620.79409 
L 589.686256 619.234923 
L 589.164149 619.234923 
L 589.164149 618.712817 
L 587.604983 618.712817 
L 587.604983 618.190711 
L 587.082876 618.190711 
L 587.082876 617.668604 
L 586.56077 617.668604 
L 586.56077 617.15365 
L 586.038664 617.15365 
L 586.038664 616.631544 
L 583.435285 616.631544 
L 583.435285 616.109438 
L 582.913178 616.109438 
L 582.913178 615.587331 
L 582.398224 615.587331 
L 582.398224 615.065225 
L 581.354012 615.065225 
L 581.354012 614.550271 
L 578.750633 614.550271 
L 578.750633 615.065225 
L 575.625147 615.065225 
L 575.625147 615.587331 
L 573.543874 615.587331 
L 573.543874 616.109438 
L 571.977555 616.109438 
L 571.977555 615.587331 
L 570.940495 615.587331 
L 570.940495 615.065225 
L 570.418389 615.065225 
L 570.418389 614.550271 
L 569.896282 614.543119 
L 569.896282 614.028165 
L 568.329964 614.028165 
L 568.329964 613.506059 
L 565.21163 613.506059 
L 565.21163 612.983952 
L 561.564039 612.983952 
L 561.564039 612.461846 
L 560.519826 612.461846 
L 560.519826 612.983952 
L 559.482766 612.983952 
L 559.482766 613.506059 
L 558.960659 613.506059 
L 558.960659 614.028165 
L 558.438553 614.028165 
L 558.438553 615.065225 
L 557.916447 615.065225 
L 557.916447 616.109438 
L 557.394341 616.109438 
L 557.394341 617.15365 
L 556.872234 617.15365 
L 556.872234 617.668604 
L 556.35728 617.668604 
L 556.35728 618.712817 
L 555.835174 618.712817 
L 555.835174 619.234923 
" style="fill:#1f77b4;"/>
    <path clip-path="url(#p5921451dab)" d="M 256.889999 441.640119 
L 256.889999 442.162225 
L 258.978424 442.162225 
L 258.978424 442.684331 
L 260.015485 442.684331 
L 260.015485 443.199286 
L 261.059697 443.199286 
L 261.059697 443.721392 
L 262.10391 443.721392 
L 262.10391 444.243498 
L 262.618864 444.243498 
L 262.618864 444.765604 
L 263.14097 444.765604 
L 263.14097 445.287711 
L 263.663076 445.287711 
L 263.663076 445.809817 
L 264.185183 445.809817 
L 264.185183 446.324771 
L 265.229395 446.324771 
L 265.229395 446.846877 
L 266.788562 446.846877 
L 266.788562 447.368984 
L 267.310668 447.368984 
L 267.310668 448.413196 
L 267.832774 448.413196 
L 267.832774 448.92815 
L 268.347729 448.92815 
L 268.347729 449.450256 
L 268.869835 449.450256 
L 268.869835 449.972363 
L 269.391941 449.972363 
L 269.391941 450.494469 
L 269.914047 450.494469 
L 269.914047 451.538682 
L 272.517427 451.538682 
L 272.517427 452.053636 
L 273.039533 452.053636 
L 273.039533 452.575742 
L 273.561639 452.575742 
L 273.561639 453.097848 
L 274.076593 453.097848 
L 274.076593 453.619954 
L 276.687125 453.619954 
L 276.687125 454.142061 
L 277.202079 454.142061 
L 277.202079 454.657015 
L 277.724185 454.657015 
L 277.724185 455.179121 
L 277.202079 455.179121 
L 277.202079 455.701227 
L 278.768398 455.701227 
L 278.768398 456.223334 
L 277.202079 456.223334 
L 277.202079 456.74544 
L 275.73589 456.74544 
L 275.120806 456.74544 
L 275.120806 457.267546 
L 274.5987 457.267546 
L 274.5987 459.870925 
L 271.473214 459.870925 
L 271.473214 460.38588 
L 270.95826 460.38588 
L 270.95826 460.907986 
L 269.391941 460.907986 
L 269.391941 461.430092 
L 268.869835 461.430092 
L 268.869835 461.952198 
L 268.347729 461.952198 
L 268.347729 462.474305 
L 267.832774 462.474305 
L 267.832774 462.996411 
L 267.310668 462.996411 
L 267.310668 463.511365 
L 266.788562 463.511365 
L 266.788562 464.033471 
L 266.266456 464.033471 
L 266.266456 464.555578 
L 265.744349 464.555578 
L 265.744349 465.077684 
L 265.229395 465.077684 
L 265.229395 464.555578 
L 262.618864 464.555578 
L 262.618864 465.077684 
L 262.10391 465.077684 
L 262.10391 465.59979 
L 260.537591 465.59979 
L 260.537591 466.114744 
L 260.015485 466.114744 
L 260.015485 467.158957 
L 256.889999 467.158957 
L 256.889999 467.681063 
L 254.808726 467.681063 
L 254.808726 468.203169 
L 253.771666 468.203169 
L 253.771666 468.725276 
L 246.998589 468.725276 
L 246.998589 468.203169 
L 244.917316 468.203169 
L 244.917316 467.681063 
L 244.39521 467.681063 
L 244.39521 467.158957 
L 243.350997 467.158957 
L 243.350997 466.63685 
L 242.828891 466.63685 
L 242.828891 466.114744 
L 243.350997 466.114744 
L 243.350997 465.077684 
L 242.828891 465.077684 
L 242.828891 462.996411 
L 242.313937 462.996411 
L 242.313937 462.474305 
L 241.79183 462.474305 
L 241.79183 461.430092 
L 240.747618 461.430092 
L 240.747618 460.907986 
L 240.225512 460.907986 
L 240.225512 460.38588 
L 239.703405 460.38588 
L 239.703405 459.870925 
L 238.666345 459.870925 
L 238.666345 459.348819 
L 237.100026 459.348819 
L 237.100026 458.826713 
L 236.585072 458.826713 
L 236.585072 458.304607 
L 236.062966 458.304607 
L 236.062966 457.7825 
L 235.540859 457.7825 
L 235.540859 457.267546 
L 235.018753 457.267546 
L 235.018753 456.74544 
L 234.496647 456.74544 
L 234.496647 454.657015 
L 233.974541 454.657015 
L 233.974541 454.142061 
L 233.459587 454.142061 
L 233.459587 448.92815 
L 233.974541 448.92815 
L 233.974541 447.89109 
L 234.496647 447.89109 
L 234.496647 446.846877 
L 235.018753 446.846877 
L 235.018753 445.809817 
L 236.585072 445.809817 
L 236.585072 445.287711 
L 238.666345 445.287711 
L 238.666345 444.765604 
L 239.188451 444.765604 
L 239.188451 443.9145 
L 239.188451 443.721392 
L 239.703405 443.721392 
L 239.703405 443.199286 
L 240.225512 443.199286 
L 240.225512 442.684331 
L 241.269724 442.684331 
L 241.269724 442.162225 
L 242.313937 442.162225 
L 242.313937 442.684331 
L 243.350997 442.684331 
L 243.350997 443.199286 
L 244.39521 443.199286 
L 244.39521 443.721392 
L 251.161135 443.721392 
L 251.161135 443.199286 
L 251.683241 443.199286 
L 251.683241 442.162225 
L 253.24956 442.162225 
L 253.24956 441.640119 
L 256.889999 441.640119 
" style="fill:#1f77b4;"/>
    <path clip-path="url(#p5921451dab)" d="M 544.377445 641.628276 
L 544.377445 642.150382 
L 544.899551 642.150382 
L 544.899551 642.672488 
L 546.458718 642.672488 
L 546.458718 643.187442 
L 546.980824 643.187442 
L 546.980824 644.231655 
L 546.458718 644.231655 
L 546.458718 644.753761 
L 545.936611 644.753761 
L 545.936611 645.275867 
L 545.414505 645.275867 
L 545.414505 645.797974 
L 544.899551 645.797974 
L 544.899551 646.312928 
L 544.377445 646.312928 
L 544.377445 645.797974 
L 542.811126 645.797974 
L 542.811126 645.275867 
L 542.296172 645.275867 
L 542.296172 644.753761 
L 541.774065 644.753761 
L 541.774065 644.231655 
L 541.251959 644.231655 
L 541.251959 643.187442 
L 541.774065 643.187442 
L 541.774065 642.672488 
L 542.296172 642.672488 
L 542.296172 642.150382 
L 542.811126 642.150382 
L 542.811126 641.628276 
L 544.377445 641.628276 
" style="fill:#1f77b4;"/>
    <path clip-path="url(#p5921451dab)" d="M 788.6302 667.147113 
L 788.6302 667.66922 
L 789.152306 667.66922 
L 789.152306 668.713432 
L 789.674412 668.713432 
L 789.674412 669.514472 
L 789.674412 669.750493 
L 789.152306 669.750493 
L 789.152306 670.272599 
L 788.6302 670.272599 
L 788.6302 671.316811 
L 788.115246 671.316811 
L 788.115246 671.831766 
L 787.593139 671.831766 
L 787.593139 671.316811 
L 787.071033 671.316811 
L 787.071033 671.831766 
L 786.548927 671.831766 
L 786.548927 672.353872 
L 785.504714 672.353872 
L 785.504714 671.831766 
L 784.98976 671.831766 
L 784.98976 670.272599 
L 784.467654 670.272599 
L 784.467654 669.950753 
L 784.467654 668.191326 
L 784.98976 668.191326 
L 784.98976 667.66922 
L 786.026821 667.66922 
L 786.026821 667.147113 
L 788.6302 667.147113 
" style="fill:#1f77b4;"/>
   </g>
   <g id="matplotlib.axis_1">
    <g id="xtick_1">
     <g id="line2d_1">
      <defs>
       <path d="M 0 0 
L 0 3.5 
" id="m1e71463211" style="stroke:#000000;stroke-width:0.8;"/>
      </defs>
      <g>
       <use style="stroke:#000000;stroke-width:0.8;" x="138.931174" xlink:href="#m1e71463211" y="755.752838"/>
      </g>
     </g>
     <g id="text_1">
      <!-- 56.45 -->
      <defs>
       <path d="M 10.59375 35.5 
L 73.1875 35.5 
L 73.1875 27.203125 
L 10.59375 27.203125 
z
" id="DejaVuSans-8722"/>
       <path d="M 10.796875 72.90625 
L 49.515625 72.90625 
L 49.515625 64.59375 
L 19.828125 64.59375 
L 19.828125 46.734375 
Q 21.96875 47.46875 24.109375 47.828125 
Q 26.265625 48.1875 28.421875 48.1875 
Q 40.625 48.1875 47.75 41.5 
Q 54.890625 34.8125 54.890625 23.390625 
Q 54.890625 11.625 47.5625 5.09375 
Q 40.234375 -1.421875 26.90625 -1.421875 
Q 22.3125 -1.421875 17.546875 -0.640625 
Q 12.796875 0.140625 7.71875 1.703125 
L 7.71875 11.625 
Q 12.109375 9.234375 16.796875 8.0625 
Q 21.484375 6.890625 26.703125 6.890625 
Q 35.15625 6.890625 40.078125 11.328125 
Q 45.015625 15.765625 45.015625 23.390625 
Q 45.015625 31 40.078125 35.4375 
Q 35.15625 39.890625 26.703125 39.890625 
Q 22.75 39.890625 18.8125 39.015625 
Q 14.890625 38.140625 10.796875 36.28125 
z
" id="DejaVuSans-53"/>
       <path d="M 33.015625 40.375 
Q 26.375 40.375 22.484375 35.828125 
Q 18.609375 31.296875 18.609375 23.390625 
Q 18.609375 15.53125 22.484375 10.953125 
Q 26.375 6.390625 33.015625 6.390625 
Q 39.65625 6.390625 43.53125 10.953125 
Q 47.40625 15.53125 47.40625 23.390625 
Q 47.40625 31.296875 43.53125 35.828125 
Q 39.65625 40.375 33.015625 40.375 
z
M 52.59375 71.296875 
L 52.59375 62.3125 
Q 48.875 64.0625 45.09375 64.984375 
Q 41.3125 65.921875 37.59375 65.921875 
Q 27.828125 65.921875 22.671875 59.328125 
Q 17.53125 52.734375 16.796875 39.40625 
Q 19.671875 43.65625 24.015625 45.921875 
Q 28.375 48.1875 33.59375 48.1875 
Q 44.578125 48.1875 50.953125 41.515625 
Q 57.328125 34.859375 57.328125 23.390625 
Q 57.328125 12.15625 50.6875 5.359375 
Q 44.046875 -1.421875 33.015625 -1.421875 
Q 20.359375 -1.421875 13.671875 8.265625 
Q 6.984375 17.96875 6.984375 36.375 
Q 6.984375 53.65625 15.1875 63.9375 
Q 23.390625 74.21875 37.203125 74.21875 
Q 40.921875 74.21875 44.703125 73.484375 
Q 48.484375 72.75 52.59375 71.296875 
z
" id="DejaVuSans-54"/>
       <path d="M 10.6875 12.40625 
L 21 12.40625 
L 21 0 
L 10.6875 0 
z
" id="DejaVuSans-46"/>
       <path d="M 37.796875 64.3125 
L 12.890625 25.390625 
L 37.796875 25.390625 
z
M 35.203125 72.90625 
L 47.609375 72.90625 
L 47.609375 25.390625 
L 58.015625 25.390625 
L 58.015625 17.1875 
L 47.609375 17.1875 
L 47.609375 0 
L 37.796875 0 
L 37.796875 17.1875 
L 4.890625 17.1875 
L 4.890625 26.703125 
z
" id="DejaVuSans-52"/>
      </defs>
      <g transform="translate(120.427268 770.351276)scale(0.1 -0.1)">
       <use xlink:href="#DejaVuSans-8722"/>
       <use x="83.789062" xlink:href="#DejaVuSans-53"/>
       <use x="147.412109" xlink:href="#DejaVuSans-54"/>
       <use x="211.035156" xlink:href="#DejaVuSans-46"/>
       <use x="242.822266" xlink:href="#DejaVuSans-52"/>
       <use x="306.445312" xlink:href="#DejaVuSans-53"/>
      </g>
     </g>
    </g>
    <g id="xtick_2">
     <g id="line2d_2">
      <g>
       <use style="stroke:#000000;stroke-width:0.8;" x="232.675712" xlink:href="#m1e71463211" y="755.752838"/>
      </g>
     </g>
     <g id="text_2">
      <!-- 56.40 -->
      <defs>
       <path d="M 31.78125 66.40625 
Q 24.171875 66.40625 20.328125 58.90625 
Q 16.5 51.421875 16.5 36.375 
Q 16.5 21.390625 20.328125 13.890625 
Q 24.171875 6.390625 31.78125 6.390625 
Q 39.453125 6.390625 43.28125 13.890625 
Q 47.125 21.390625 47.125 36.375 
Q 47.125 51.421875 43.28125 58.90625 
Q 39.453125 66.40625 31.78125 66.40625 
z
M 31.78125 74.21875 
Q 44.046875 74.21875 50.515625 64.515625 
Q 56.984375 54.828125 56.984375 36.375 
Q 56.984375 17.96875 50.515625 8.265625 
Q 44.046875 -1.421875 31.78125 -1.421875 
Q 19.53125 -1.421875 13.0625 8.265625 
Q 6.59375 17.96875 6.59375 36.375 
Q 6.59375 54.828125 13.0625 64.515625 
Q 19.53125 74.21875 31.78125 74.21875 
z
" id="DejaVuSans-48"/>
      </defs>
      <g transform="translate(214.171806 770.351276)scale(0.1 -0.1)">
       <use xlink:href="#DejaVuSans-8722"/>
       <use x="83.789062" xlink:href="#DejaVuSans-53"/>
       <use x="147.412109" xlink:href="#DejaVuSans-54"/>
       <use x="211.035156" xlink:href="#DejaVuSans-46"/>
       <use x="242.822266" xlink:href="#DejaVuSans-52"/>
       <use x="306.445312" xlink:href="#DejaVuSans-48"/>
      </g>
     </g>
    </g>
    <g id="xtick_3">
     <g id="line2d_3">
      <g>
       <use style="stroke:#000000;stroke-width:0.8;" x="326.42025" xlink:href="#m1e71463211" y="755.752838"/>
      </g>
     </g>
     <g id="text_3">
      <!-- 56.35 -->
      <defs>
       <path d="M 40.578125 39.3125 
Q 47.65625 37.796875 51.625 33 
Q 55.609375 28.21875 55.609375 21.1875 
Q 55.609375 10.40625 48.1875 4.484375 
Q 40.765625 -1.421875 27.09375 -1.421875 
Q 22.515625 -1.421875 17.65625 -0.515625 
Q 12.796875 0.390625 7.625 2.203125 
L 7.625 11.71875 
Q 11.71875 9.328125 16.59375 8.109375 
Q 21.484375 6.890625 26.8125 6.890625 
Q 36.078125 6.890625 40.9375 10.546875 
Q 45.796875 14.203125 45.796875 21.1875 
Q 45.796875 27.640625 41.28125 31.265625 
Q 36.765625 34.90625 28.71875 34.90625 
L 20.21875 34.90625 
L 20.21875 43.015625 
L 29.109375 43.015625 
Q 36.375 43.015625 40.234375 45.921875 
Q 44.09375 48.828125 44.09375 54.296875 
Q 44.09375 59.90625 40.109375 62.90625 
Q 36.140625 65.921875 28.71875 65.921875 
Q 24.65625 65.921875 20.015625 65.03125 
Q 15.375 64.15625 9.8125 62.3125 
L 9.8125 71.09375 
Q 15.4375 72.65625 20.34375 73.4375 
Q 25.25 74.21875 29.59375 74.21875 
Q 40.828125 74.21875 47.359375 69.109375 
Q 53.90625 64.015625 53.90625 55.328125 
Q 53.90625 49.265625 50.4375 45.09375 
Q 46.96875 40.921875 40.578125 39.3125 
z
" id="DejaVuSans-51"/>
      </defs>
      <g transform="translate(307.916344 770.351276)scale(0.1 -0.1)">
       <use xlink:href="#DejaVuSans-8722"/>
       <use x="83.789062" xlink:href="#DejaVuSans-53"/>
       <use x="147.412109" xlink:href="#DejaVuSans-54"/>
       <use x="211.035156" xlink:href="#DejaVuSans-46"/>
       <use x="242.822266" xlink:href="#DejaVuSans-51"/>
       <use x="306.445312" xlink:href="#DejaVuSans-53"/>
      </g>
     </g>
    </g>
    <g id="xtick_4">
     <g id="line2d_4">
      <g>
       <use style="stroke:#000000;stroke-width:0.8;" x="420.164788" xlink:href="#m1e71463211" y="755.752838"/>
      </g>
     </g>
     <g id="text_4">
      <!-- 56.30 -->
      <g transform="translate(401.660881 770.351276)scale(0.1 -0.1)">
       <use xlink:href="#DejaVuSans-8722"/>
       <use x="83.789062" xlink:href="#DejaVuSans-53"/>
       <use x="147.412109" xlink:href="#DejaVuSans-54"/>
       <use x="211.035156" xlink:href="#DejaVuSans-46"/>
       <use x="242.822266" xlink:href="#DejaVuSans-51"/>
       <use x="306.445312" xlink:href="#DejaVuSans-48"/>
      </g>
     </g>
    </g>
    <g id="xtick_5">
     <g id="line2d_5">
      <g>
       <use style="stroke:#000000;stroke-width:0.8;" x="513.909325" xlink:href="#m1e71463211" y="755.752838"/>
      </g>
     </g>
     <g id="text_5">
      <!-- 56.25 -->
      <defs>
       <path d="M 19.1875 8.296875 
L 53.609375 8.296875 
L 53.609375 0 
L 7.328125 0 
L 7.328125 8.296875 
Q 12.9375 14.109375 22.625 23.890625 
Q 32.328125 33.6875 34.8125 36.53125 
Q 39.546875 41.84375 41.421875 45.53125 
Q 43.3125 49.21875 43.3125 52.78125 
Q 43.3125 58.59375 39.234375 62.25 
Q 35.15625 65.921875 28.609375 65.921875 
Q 23.96875 65.921875 18.8125 64.3125 
Q 13.671875 62.703125 7.8125 59.421875 
L 7.8125 69.390625 
Q 13.765625 71.78125 18.9375 73 
Q 24.125 74.21875 28.421875 74.21875 
Q 39.75 74.21875 46.484375 68.546875 
Q 53.21875 62.890625 53.21875 53.421875 
Q 53.21875 48.921875 51.53125 44.890625 
Q 49.859375 40.875 45.40625 35.40625 
Q 44.1875 33.984375 37.640625 27.21875 
Q 31.109375 20.453125 19.1875 8.296875 
z
" id="DejaVuSans-50"/>
      </defs>
      <g transform="translate(495.405419 770.351276)scale(0.1 -0.1)">
       <use xlink:href="#DejaVuSans-8722"/>
       <use x="83.789062" xlink:href="#DejaVuSans-53"/>
       <use x="147.412109" xlink:href="#DejaVuSans-54"/>
       <use x="211.035156" xlink:href="#DejaVuSans-46"/>
       <use x="242.822266" xlink:href="#DejaVuSans-50"/>
       <use x="306.445312" xlink:href="#DejaVuSans-53"/>
      </g>
     </g>
    </g>
    <g id="xtick_6">
     <g id="line2d_6">
      <g>
       <use style="stroke:#000000;stroke-width:0.8;" x="607.653863" xlink:href="#m1e71463211" y="755.752838"/>
      </g>
     </g>
     <g id="text_6">
      <!-- 56.20 -->
      <g transform="translate(589.149957 770.351276)scale(0.1 -0.1)">
       <use xlink:href="#DejaVuSans-8722"/>
       <use x="83.789062" xlink:href="#DejaVuSans-53"/>
       <use x="147.412109" xlink:href="#DejaVuSans-54"/>
       <use x="211.035156" xlink:href="#DejaVuSans-46"/>
       <use x="242.822266" xlink:href="#DejaVuSans-50"/>
       <use x="306.445312" xlink:href="#DejaVuSans-48"/>
      </g>
     </g>
    </g>
    <g id="xtick_7">
     <g id="line2d_7">
      <g>
       <use style="stroke:#000000;stroke-width:0.8;" x="701.398401" xlink:href="#m1e71463211" y="755.752838"/>
      </g>
     </g>
     <g id="text_7">
      <!-- 56.15 -->
      <defs>
       <path d="M 12.40625 8.296875 
L 28.515625 8.296875 
L 28.515625 63.921875 
L 10.984375 60.40625 
L 10.984375 69.390625 
L 28.421875 72.90625 
L 38.28125 72.90625 
L 38.28125 8.296875 
L 54.390625 8.296875 
L 54.390625 0 
L 12.40625 0 
z
" id="DejaVuSans-49"/>
      </defs>
      <g transform="translate(682.894495 770.351276)scale(0.1 -0.1)">
       <use xlink:href="#DejaVuSans-8722"/>
       <use x="83.789062" xlink:href="#DejaVuSans-53"/>
       <use x="147.412109" xlink:href="#DejaVuSans-54"/>
       <use x="211.035156" xlink:href="#DejaVuSans-46"/>
       <use x="242.822266" xlink:href="#DejaVuSans-49"/>
       <use x="306.445312" xlink:href="#DejaVuSans-53"/>
      </g>
     </g>
    </g>
    <g id="xtick_8">
     <g id="line2d_8">
      <g>
       <use style="stroke:#000000;stroke-width:0.8;" x="795.142939" xlink:href="#m1e71463211" y="755.752838"/>
      </g>
     </g>
     <g id="text_8">
      <!-- 56.10 -->
      <g transform="translate(776.639033 770.351276)scale(0.1 -0.1)">
       <use xlink:href="#DejaVuSans-8722"/>
       <use x="83.789062" xlink:href="#DejaVuSans-53"/>
       <use x="147.412109" xlink:href="#DejaVuSans-54"/>
       <use x="211.035156" xlink:href="#DejaVuSans-46"/>
       <use x="242.822266" xlink:href="#DejaVuSans-49"/>
       <use x="306.445312" xlink:href="#DejaVuSans-48"/>
      </g>
     </g>
    </g>
    <g id="xtick_9">
     <g id="line2d_9">
      <g>
       <use style="stroke:#000000;stroke-width:0.8;" x="888.887477" xlink:href="#m1e71463211" y="755.752838"/>
      </g>
     </g>
     <g id="text_9">
      <!-- 56.05 -->
      <g transform="translate(870.383571 770.351276)scale(0.1 -0.1)">
       <use xlink:href="#DejaVuSans-8722"/>
       <use x="83.789062" xlink:href="#DejaVuSans-53"/>
       <use x="147.412109" xlink:href="#DejaVuSans-54"/>
       <use x="211.035156" xlink:href="#DejaVuSans-46"/>
       <use x="242.822266" xlink:href="#DejaVuSans-48"/>
       <use x="306.445312" xlink:href="#DejaVuSans-53"/>
      </g>
     </g>
    </g>
   </g>
   <g id="matplotlib.axis_2">
    <g id="ytick_1">
     <g id="line2d_10">
      <defs>
       <path d="M 0 0 
L -3.5 0 
" id="m67ee7177c1" style="stroke:#000000;stroke-width:0.8;"/>
      </defs>
      <g>
       <use style="stroke:#000000;stroke-width:0.8;" x="135" xlink:href="#m67ee7177c1" y="664.283396"/>
      </g>
     </g>
     <g id="text_10">
      <!-- 34.90 -->
      <defs>
       <path d="M 10.984375 1.515625 
L 10.984375 10.5 
Q 14.703125 8.734375 18.5 7.8125 
Q 22.3125 6.890625 25.984375 6.890625 
Q 35.75 6.890625 40.890625 13.453125 
Q 46.046875 20.015625 46.78125 33.40625 
Q 43.953125 29.203125 39.59375 26.953125 
Q 35.25 24.703125 29.984375 24.703125 
Q 19.046875 24.703125 12.671875 31.3125 
Q 6.296875 37.9375 6.296875 49.421875 
Q 6.296875 60.640625 12.9375 67.421875 
Q 19.578125 74.21875 30.609375 74.21875 
Q 43.265625 74.21875 49.921875 64.515625 
Q 56.59375 54.828125 56.59375 36.375 
Q 56.59375 19.140625 48.40625 8.859375 
Q 40.234375 -1.421875 26.421875 -1.421875 
Q 22.703125 -1.421875 18.890625 -0.6875 
Q 15.09375 0.046875 10.984375 1.515625 
z
M 30.609375 32.421875 
Q 37.25 32.421875 41.125 36.953125 
Q 45.015625 41.5 45.015625 49.421875 
Q 45.015625 57.28125 41.125 61.84375 
Q 37.25 66.40625 30.609375 66.40625 
Q 23.96875 66.40625 20.09375 61.84375 
Q 16.21875 57.28125 16.21875 49.421875 
Q 16.21875 41.5 20.09375 36.953125 
Q 23.96875 32.421875 30.609375 32.421875 
z
" id="DejaVuSans-57"/>
      </defs>
      <g transform="translate(90.992188 668.082615)scale(0.1 -0.1)">
       <use xlink:href="#DejaVuSans-8722"/>
       <use x="83.789062" xlink:href="#DejaVuSans-51"/>
       <use x="147.412109" xlink:href="#DejaVuSans-52"/>
       <use x="211.035156" xlink:href="#DejaVuSans-46"/>
       <use x="242.822266" xlink:href="#DejaVuSans-57"/>
       <use x="306.445312" xlink:href="#DejaVuSans-48"/>
      </g>
     </g>
    </g>
    <g id="ytick_2">
     <g id="line2d_11">
      <g>
       <use style="stroke:#000000;stroke-width:0.8;" x="135" xlink:href="#m67ee7177c1" y="570.538858"/>
      </g>
     </g>
     <g id="text_11">
      <!-- 34.85 -->
      <defs>
       <path d="M 31.78125 34.625 
Q 24.75 34.625 20.71875 30.859375 
Q 16.703125 27.09375 16.703125 20.515625 
Q 16.703125 13.921875 20.71875 10.15625 
Q 24.75 6.390625 31.78125 6.390625 
Q 38.8125 6.390625 42.859375 10.171875 
Q 46.921875 13.96875 46.921875 20.515625 
Q 46.921875 27.09375 42.890625 30.859375 
Q 38.875 34.625 31.78125 34.625 
z
M 21.921875 38.8125 
Q 15.578125 40.375 12.03125 44.71875 
Q 8.5 49.078125 8.5 55.328125 
Q 8.5 64.0625 14.71875 69.140625 
Q 20.953125 74.21875 31.78125 74.21875 
Q 42.671875 74.21875 48.875 69.140625 
Q 55.078125 64.0625 55.078125 55.328125 
Q 55.078125 49.078125 51.53125 44.71875 
Q 48 40.375 41.703125 38.8125 
Q 48.828125 37.15625 52.796875 32.3125 
Q 56.78125 27.484375 56.78125 20.515625 
Q 56.78125 9.90625 50.3125 4.234375 
Q 43.84375 -1.421875 31.78125 -1.421875 
Q 19.734375 -1.421875 13.25 4.234375 
Q 6.78125 9.90625 6.78125 20.515625 
Q 6.78125 27.484375 10.78125 32.3125 
Q 14.796875 37.15625 21.921875 38.8125 
z
M 18.3125 54.390625 
Q 18.3125 48.734375 21.84375 45.5625 
Q 25.390625 42.390625 31.78125 42.390625 
Q 38.140625 42.390625 41.71875 45.5625 
Q 45.3125 48.734375 45.3125 54.390625 
Q 45.3125 60.0625 41.71875 63.234375 
Q 38.140625 66.40625 31.78125 66.40625 
Q 25.390625 66.40625 21.84375 63.234375 
Q 18.3125 60.0625 18.3125 54.390625 
z
" id="DejaVuSans-56"/>
      </defs>
      <g transform="translate(90.992188 574.338077)scale(0.1 -0.1)">
       <use xlink:href="#DejaVuSans-8722"/>
       <use x="83.789062" xlink:href="#DejaVuSans-51"/>
       <use x="147.412109" xlink:href="#DejaVuSans-52"/>
       <use x="211.035156" xlink:href="#DejaVuSans-46"/>
       <use x="242.822266" xlink:href="#DejaVuSans-56"/>
       <use x="306.445312" xlink:href="#DejaVuSans-53"/>
      </g>
     </g>
    </g>
    <g id="ytick_3">
     <g id="line2d_12">
      <g>
       <use style="stroke:#000000;stroke-width:0.8;" x="135" xlink:href="#m67ee7177c1" y="476.794321"/>
      </g>
     </g>
     <g id="text_12">
      <!-- 34.80 -->
      <g transform="translate(90.992188 480.593539)scale(0.1 -0.1)">
       <use xlink:href="#DejaVuSans-8722"/>
       <use x="83.789062" xlink:href="#DejaVuSans-51"/>
       <use x="147.412109" xlink:href="#DejaVuSans-52"/>
       <use x="211.035156" xlink:href="#DejaVuSans-46"/>
       <use x="242.822266" xlink:href="#DejaVuSans-56"/>
       <use x="306.445312" xlink:href="#DejaVuSans-48"/>
      </g>
     </g>
    </g>
    <g id="ytick_4">
     <g id="line2d_13">
      <g>
       <use style="stroke:#000000;stroke-width:0.8;" x="135" xlink:href="#m67ee7177c1" y="383.049783"/>
      </g>
     </g>
     <g id="text_13">
      <!-- 34.75 -->
      <defs>
       <path d="M 8.203125 72.90625 
L 55.078125 72.90625 
L 55.078125 68.703125 
L 28.609375 0 
L 18.3125 0 
L 43.21875 64.59375 
L 8.203125 64.59375 
z
" id="DejaVuSans-55"/>
      </defs>
      <g transform="translate(90.992188 386.849001)scale(0.1 -0.1)">
       <use xlink:href="#DejaVuSans-8722"/>
       <use x="83.789062" xlink:href="#DejaVuSans-51"/>
       <use x="147.412109" xlink:href="#DejaVuSans-52"/>
       <use x="211.035156" xlink:href="#DejaVuSans-46"/>
       <use x="242.822266" xlink:href="#DejaVuSans-55"/>
       <use x="306.445312" xlink:href="#DejaVuSans-53"/>
      </g>
     </g>
    </g>
   </g>
   <g id="patch_3">
    <path d="M 135 755.752838 
L 135 318.847162 
" style="fill:none;stroke:#000000;stroke-linecap:square;stroke-linejoin:miter;stroke-width:0.8;"/>
   </g>
   <g id="patch_4">
    <path d="M 972 755.752838 
L 972 318.847162 
" style="fill:none;stroke:#000000;stroke-linecap:square;stroke-linejoin:miter;stroke-width:0.8;"/>
   </g>
   <g id="patch_5">
    <path d="M 135 755.752838 
L 972 755.752838 
" style="fill:none;stroke:#000000;stroke-linecap:square;stroke-linejoin:miter;stroke-width:0.8;"/>
   </g>
   <g id="patch_6">
    <path d="M 135 318.847162 
L 972 318.847162 
" style="fill:none;stroke:#000000;stroke-linecap:square;stroke-linejoin:miter;stroke-width:0.8;"/>
   </g>
  </g>
 </g>
 <defs>
  <clipPath id="p5921451dab">
   <rect height="436.905676" width="837" x="135" y="318.847162"/>
  </clipPath>
 </defs>
</svg>
