<?xml version="1.0" encoding="utf-8" standalone="no"?>
<!DOCTYPE svg PUBLIC "-//W3C//DTD SVG 1.1//EN"
  "http://www.w3.org/Graphics/SVG/1.1/DTD/svg11.dtd">
<!-- Created with matplotlib (https://matplotlib.org/) -->
<svg height="360pt" version="1.1" viewBox="0 0 1080 360" width="1080pt" xmlns="http://www.w3.org/2000/svg" xmlns:xlink="http://www.w3.org/1999/xlink">
 <defs>
  <style type="text/css">
*{stroke-linecap:butt;stroke-linejoin:round;}
  </style>
 </defs>
 <g id="figure_1">
  <g id="patch_1">
   <path d="M 0 360 
L 1080 360 
L 1080 0 
L 0 0 
z
" style="fill:#ffffff;"/>
  </g>
  <g id="axes_1">
   <g id="patch_2">
    <path d="M 135 315 
L 515.454545 315 
L 515.454545 43.2 
L 135 43.2 
z
" style="fill:#ffffff;"/>
   </g>
   <g id="PolyCollection_1">
    <defs>
     <path d="M 147.681818 -284.306822 
L 147.681818 -275.67862 
L 160.363636 -275.67862 
L 160.363636 -250.912335 
L 173.045455 -250.912335 
L 173.045455 -226.255829 
L 185.727273 -226.255829 
L 185.727273 -207.339804 
L 198.409091 -207.339804 
L 198.409091 -194.388038 
L 211.090909 -194.388038 
L 211.090909 -182.845737 
L 223.772727 -182.845737 
L 223.772727 -174.89218 
L 236.454545 -174.89218 
L 236.454545 -163.895664 
L 249.136364 -163.895664 
L 249.136364 -154.267383 
L 261.818182 -154.267383 
L 261.818182 -142.949192 
L 274.5 -142.949192 
L 274.5 -134.937998 
L 287.181818 -134.937998 
L 287.181818 -128.254693 
L 299.863636 -128.254693 
L 299.863636 -121.599513 
L 312.545455 -121.599513 
L 312.545455 -113.696374 
L 325.227273 -113.696374 
L 325.227273 -105.842123 
L 337.909091 -105.842123 
L 337.909091 -96.78608 
L 350.590909 -96.78608 
L 350.590909 -94.065877 
L 363.272727 -94.065877 
L 363.272727 -88.032673 
L 375.954545 -88.032673 
L 375.954545 -84.727683 
L 388.636364 -84.727683 
L 388.636364 -82.261788 
L 401.318182 -82.261788 
L 401.318182 -78.79012 
L 414 -78.79012 
L 414 -76.559338 
L 426.681818 -76.559338 
L 426.681818 -72.741131 
L 439.363636 -72.741131 
L 439.363636 -69.568819 
L 452.045455 -69.568819 
L 452.045455 -67.417612 
L 464.727273 -67.417612 
L 464.727273 -64.159219 
L 477.409091 -64.159219 
L 477.409091 -60.850649 
L 490.090909 -60.850649 
L 490.090909 -58.811294 
L 502.772727 -58.811294 
L 502.772727 -58.053231 
L 515.454545 -58.053231 
L 515.454545 -57.354545 
L 515.454545 -57.354545 
L 515.454545 -57.354545 
L 515.454545 -60.430495 
L 502.772727 -60.430495 
L 502.772727 -61.856875 
L 490.090909 -61.856875 
L 490.090909 -65.08036 
L 477.409091 -65.08036 
L 477.409091 -69.681722 
L 464.727273 -69.681722 
L 464.727273 -73.900555 
L 452.045455 -73.900555 
L 452.045455 -76.589486 
L 439.363636 -76.589486 
L 439.363636 -80.459204 
L 426.681818 -80.459204 
L 426.681818 -85.005455 
L 414 -85.005455 
L 414 -87.618029 
L 401.318182 -87.618029 
L 401.318182 -91.632432 
L 388.636364 -91.632432 
L 388.636364 -94.451368 
L 375.954545 -94.451368 
L 375.954545 -98.193406 
L 363.272727 -98.193406 
L 363.272727 -104.934354 
L 350.590909 -104.934354 
L 350.590909 -107.940991 
L 337.909091 -107.940991 
L 337.909091 -117.829319 
L 325.227273 -117.829319 
L 325.227273 -126.277778 
L 312.545455 -126.277778 
L 312.545455 -134.678617 
L 299.863636 -134.678617 
L 299.863636 -141.68434 
L 287.181818 -141.68434 
L 287.181818 -148.662572 
L 274.5 -148.662572 
L 274.5 -156.957806 
L 261.818182 -156.957806 
L 261.818182 -168.557897 
L 249.136364 -168.557897 
L 249.136364 -178.322899 
L 236.454545 -178.322899 
L 236.454545 -189.365053 
L 223.772727 -189.365053 
L 223.772727 -197.279832 
L 211.090909 -197.279832 
L 211.090909 -208.659102 
L 198.409091 -208.659102 
L 198.409091 -221.274494 
L 185.727273 -221.274494 
L 185.727273 -239.388024 
L 173.045455 -239.388024 
L 173.045455 -262.342677 
L 160.363636 -262.342677 
L 160.363636 -284.306822 
L 147.681818 -284.306822 
z
" id="mf53d4431d5" style="stroke:#1f77b4;stroke-opacity:0.25;"/>
    </defs>
    <g clip-path="url(#p813a3fc4a4)">
     <use style="fill:#1f77b4;fill-opacity:0.25;stroke:#1f77b4;stroke-opacity:0.25;" x="0" xlink:href="#mf53d4431d5" y="360"/>
    </g>
   </g>
   <g id="PolyCollection_2">
    <defs>
     <path d="M 147.681818 -257.038382 
L 147.681818 -246.589412 
L 160.363636 -246.589412 
L 160.363636 -207.247232 
L 173.045455 -207.247232 
L 173.045455 -161.621744 
L 185.727273 -161.621744 
L 185.727273 -136.023814 
L 198.409091 -136.023814 
L 198.409091 -119.919671 
L 211.090909 -119.919671 
L 211.090909 -112.756706 
L 223.772727 -112.756706 
L 223.772727 -104.143266 
L 236.454545 -104.143266 
L 236.454545 -96.903494 
L 249.136364 -96.903494 
L 249.136364 -93.46642 
L 261.818182 -93.46642 
L 261.818182 -88.580107 
L 274.5 -88.580107 
L 274.5 -83.082078 
L 287.181818 -83.082078 
L 287.181818 -80.832747 
L 299.863636 -80.832747 
L 299.863636 -78.274313 
L 312.545455 -78.274313 
L 312.545455 -77.000554 
L 325.227273 -77.000554 
L 325.227273 -75.730818 
L 337.909091 -75.730818 
L 337.909091 -74.149837 
L 350.590909 -74.149837 
L 350.590909 -72.419615 
L 363.272727 -72.419615 
L 363.272727 -70.85583 
L 375.954545 -70.85583 
L 375.954545 -68.067404 
L 388.636364 -68.067404 
L 388.636364 -66.079965 
L 401.318182 -66.079965 
L 401.318182 -65.172111 
L 414 -65.172111 
L 414 -64.122072 
L 426.681818 -64.122072 
L 426.681818 -62.78955 
L 439.363636 -62.78955 
L 439.363636 -61.770367 
L 452.045455 -61.770367 
L 452.045455 -61.626262 
L 464.727273 -61.626262 
L 464.727273 -59.799114 
L 477.409091 -59.799114 
L 477.409091 -58.488513 
L 490.090909 -58.488513 
L 490.090909 -57.898948 
L 502.772727 -57.898948 
L 502.772727 -57.688066 
L 515.454545 -57.688066 
L 515.454545 -57.354545 
L 515.454545 -57.354545 
L 515.454545 -57.354545 
L 515.454545 -59.28725 
L 502.772727 -59.28725 
L 502.772727 -59.752616 
L 490.090909 -59.752616 
L 490.090909 -60.863022 
L 477.409091 -60.863022 
L 477.409091 -62.964505 
L 464.727273 -62.964505 
L 464.727273 -65.580856 
L 452.045455 -65.580856 
L 452.045455 -65.778745 
L 439.363636 -65.778745 
L 439.363636 -67.154021 
L 426.681818 -67.154021 
L 426.681818 -68.901106 
L 414 -68.901106 
L 414 -70.246914 
L 401.318182 -70.246914 
L 401.318182 -71.39297 
L 388.636364 -71.39297 
L 388.636364 -73.856495 
L 375.954545 -73.856495 
L 375.954545 -77.232359 
L 363.272727 -77.232359 
L 363.272727 -79.093724 
L 350.590909 -79.093724 
L 350.590909 -81.131526 
L 337.909091 -81.131526 
L 337.909091 -82.976303 
L 325.227273 -82.976303 
L 325.227273 -84.447342 
L 312.545455 -84.447342 
L 312.545455 -85.914493 
L 299.863636 -85.914493 
L 299.863636 -88.838237 
L 287.181818 -88.838237 
L 287.181818 -91.386156 
L 274.5 -91.386156 
L 274.5 -97.53968 
L 261.818182 -97.53968 
L 261.818182 -102.935186 
L 249.136364 -102.935186 
L 249.136364 -106.695854 
L 236.454545 -106.695854 
L 236.454545 -114.53809 
L 223.772727 -114.53809 
L 223.772727 -123.750287 
L 211.090909 -123.750287 
L 211.090909 -131.328697 
L 198.409091 -131.328697 
L 198.409091 -148.137919 
L 185.727273 -148.137919 
L 185.727273 -174.314828 
L 173.045455 -174.314828 
L 173.045455 -219.56175 
L 160.363636 -219.56175 
L 160.363636 -257.038382 
L 147.681818 -257.038382 
z
" id="m0824d402c4" style="stroke:#ff7f0e;stroke-opacity:0.25;"/>
    </defs>
    <g clip-path="url(#p813a3fc4a4)">
     <use style="fill:#ff7f0e;fill-opacity:0.25;stroke:#ff7f0e;stroke-opacity:0.25;" x="0" xlink:href="#m0824d402c4" y="360"/>
    </g>
   </g>
   <g id="matplotlib.axis_1">
    <g id="xtick_1">
     <g id="line2d_1">
      <defs>
       <path d="M 0 0 
L 0 3.5 
" id="m7e6cc9dbee" style="stroke:#000000;stroke-width:0.8;"/>
      </defs>
      <g>
       <use style="stroke:#000000;stroke-width:0.8;" x="135" xlink:href="#m7e6cc9dbee" y="315"/>
      </g>
     </g>
     <g id="text_1">
      <!-- 0 -->
      <defs>
       <path d="M 31.78125 66.40625 
Q 24.171875 66.40625 20.328125 58.90625 
Q 16.5 51.421875 16.5 36.375 
Q 16.5 21.390625 20.328125 13.890625 
Q 24.171875 6.390625 31.78125 6.390625 
Q 39.453125 6.390625 43.28125 13.890625 
Q 47.125 21.390625 47.125 36.375 
Q 47.125 51.421875 43.28125 58.90625 
Q 39.453125 66.40625 31.78125 66.40625 
z
M 31.78125 74.21875 
Q 44.046875 74.21875 50.515625 64.515625 
Q 56.984375 54.828125 56.984375 36.375 
Q 56.984375 17.96875 50.515625 8.265625 
Q 44.046875 -1.421875 31.78125 -1.421875 
Q 19.53125 -1.421875 13.0625 8.265625 
Q 6.59375 17.96875 6.59375 36.375 
Q 6.59375 54.828125 13.0625 64.515625 
Q 19.53125 74.21875 31.78125 74.21875 
z
" id="DejaVuSans-48"/>
      </defs>
      <g transform="translate(131.81875 329.598437)scale(0.1 -0.1)">
       <use xlink:href="#DejaVuSans-48"/>
      </g>
     </g>
    </g>
    <g id="xtick_2">
     <g id="line2d_2">
      <g>
       <use style="stroke:#000000;stroke-width:0.8;" x="198.409091" xlink:href="#m7e6cc9dbee" y="315"/>
      </g>
     </g>
     <g id="text_2">
      <!-- 5 -->
      <defs>
       <path d="M 10.796875 72.90625 
L 49.515625 72.90625 
L 49.515625 64.59375 
L 19.828125 64.59375 
L 19.828125 46.734375 
Q 21.96875 47.46875 24.109375 47.828125 
Q 26.265625 48.1875 28.421875 48.1875 
Q 40.625 48.1875 47.75 41.5 
Q 54.890625 34.8125 54.890625 23.390625 
Q 54.890625 11.625 47.5625 5.09375 
Q 40.234375 -1.421875 26.90625 -1.421875 
Q 22.3125 -1.421875 17.546875 -0.640625 
Q 12.796875 0.140625 7.71875 1.703125 
L 7.71875 11.625 
Q 12.109375 9.234375 16.796875 8.0625 
Q 21.484375 6.890625 26.703125 6.890625 
Q 35.15625 6.890625 40.078125 11.328125 
Q 45.015625 15.765625 45.015625 23.390625 
Q 45.015625 31 40.078125 35.4375 
Q 35.15625 39.890625 26.703125 39.890625 
Q 22.75 39.890625 18.8125 39.015625 
Q 14.890625 38.140625 10.796875 36.28125 
z
" id="DejaVuSans-53"/>
      </defs>
      <g transform="translate(195.227841 329.598437)scale(0.1 -0.1)">
       <use xlink:href="#DejaVuSans-53"/>
      </g>
     </g>
    </g>
    <g id="xtick_3">
     <g id="line2d_3">
      <g>
       <use style="stroke:#000000;stroke-width:0.8;" x="261.818182" xlink:href="#m7e6cc9dbee" y="315"/>
      </g>
     </g>
     <g id="text_3">
      <!-- 10 -->
      <defs>
       <path d="M 12.40625 8.296875 
L 28.515625 8.296875 
L 28.515625 63.921875 
L 10.984375 60.40625 
L 10.984375 69.390625 
L 28.421875 72.90625 
L 38.28125 72.90625 
L 38.28125 8.296875 
L 54.390625 8.296875 
L 54.390625 0 
L 12.40625 0 
z
" id="DejaVuSans-49"/>
      </defs>
      <g transform="translate(255.455682 329.598437)scale(0.1 -0.1)">
       <use xlink:href="#DejaVuSans-49"/>
       <use x="63.623047" xlink:href="#DejaVuSans-48"/>
      </g>
     </g>
    </g>
    <g id="xtick_4">
     <g id="line2d_4">
      <g>
       <use style="stroke:#000000;stroke-width:0.8;" x="325.227273" xlink:href="#m7e6cc9dbee" y="315"/>
      </g>
     </g>
     <g id="text_4">
      <!-- 15 -->
      <g transform="translate(318.864773 329.598437)scale(0.1 -0.1)">
       <use xlink:href="#DejaVuSans-49"/>
       <use x="63.623047" xlink:href="#DejaVuSans-53"/>
      </g>
     </g>
    </g>
    <g id="xtick_5">
     <g id="line2d_5">
      <g>
       <use style="stroke:#000000;stroke-width:0.8;" x="388.636364" xlink:href="#m7e6cc9dbee" y="315"/>
      </g>
     </g>
     <g id="text_5">
      <!-- 20 -->
      <defs>
       <path d="M 19.1875 8.296875 
L 53.609375 8.296875 
L 53.609375 0 
L 7.328125 0 
L 7.328125 8.296875 
Q 12.9375 14.109375 22.625 23.890625 
Q 32.328125 33.6875 34.8125 36.53125 
Q 39.546875 41.84375 41.421875 45.53125 
Q 43.3125 49.21875 43.3125 52.78125 
Q 43.3125 58.59375 39.234375 62.25 
Q 35.15625 65.921875 28.609375 65.921875 
Q 23.96875 65.921875 18.8125 64.3125 
Q 13.671875 62.703125 7.8125 59.421875 
L 7.8125 69.390625 
Q 13.765625 71.78125 18.9375 73 
Q 24.125 74.21875 28.421875 74.21875 
Q 39.75 74.21875 46.484375 68.546875 
Q 53.21875 62.890625 53.21875 53.421875 
Q 53.21875 48.921875 51.53125 44.890625 
Q 49.859375 40.875 45.40625 35.40625 
Q 44.1875 33.984375 37.640625 27.21875 
Q 31.109375 20.453125 19.1875 8.296875 
z
" id="DejaVuSans-50"/>
      </defs>
      <g transform="translate(382.273864 329.598437)scale(0.1 -0.1)">
       <use xlink:href="#DejaVuSans-50"/>
       <use x="63.623047" xlink:href="#DejaVuSans-48"/>
      </g>
     </g>
    </g>
    <g id="xtick_6">
     <g id="line2d_6">
      <g>
       <use style="stroke:#000000;stroke-width:0.8;" x="452.045455" xlink:href="#m7e6cc9dbee" y="315"/>
      </g>
     </g>
     <g id="text_6">
      <!-- 25 -->
      <g transform="translate(445.682955 329.598437)scale(0.1 -0.1)">
       <use xlink:href="#DejaVuSans-50"/>
       <use x="63.623047" xlink:href="#DejaVuSans-53"/>
      </g>
     </g>
    </g>
    <g id="xtick_7">
     <g id="line2d_7">
      <g>
       <use style="stroke:#000000;stroke-width:0.8;" x="515.454545" xlink:href="#m7e6cc9dbee" y="315"/>
      </g>
     </g>
     <g id="text_7">
      <!-- 30 -->
      <defs>
       <path d="M 40.578125 39.3125 
Q 47.65625 37.796875 51.625 33 
Q 55.609375 28.21875 55.609375 21.1875 
Q 55.609375 10.40625 48.1875 4.484375 
Q 40.765625 -1.421875 27.09375 -1.421875 
Q 22.515625 -1.421875 17.65625 -0.515625 
Q 12.796875 0.390625 7.625 2.203125 
L 7.625 11.71875 
Q 11.71875 9.328125 16.59375 8.109375 
Q 21.484375 6.890625 26.8125 6.890625 
Q 36.078125 6.890625 40.9375 10.546875 
Q 45.796875 14.203125 45.796875 21.1875 
Q 45.796875 27.640625 41.28125 31.265625 
Q 36.765625 34.90625 28.71875 34.90625 
L 20.21875 34.90625 
L 20.21875 43.015625 
L 29.109375 43.015625 
Q 36.375 43.015625 40.234375 45.921875 
Q 44.09375 48.828125 44.09375 54.296875 
Q 44.09375 59.90625 40.109375 62.90625 
Q 36.140625 65.921875 28.71875 65.921875 
Q 24.65625 65.921875 20.015625 65.03125 
Q 15.375 64.15625 9.8125 62.3125 
L 9.8125 71.09375 
Q 15.4375 72.65625 20.34375 73.4375 
Q 25.25 74.21875 29.59375 74.21875 
Q 40.828125 74.21875 47.359375 69.109375 
Q 53.90625 64.015625 53.90625 55.328125 
Q 53.90625 49.265625 50.4375 45.09375 
Q 46.96875 40.921875 40.578125 39.3125 
z
" id="DejaVuSans-51"/>
      </defs>
      <g transform="translate(509.092045 329.598437)scale(0.1 -0.1)">
       <use xlink:href="#DejaVuSans-51"/>
       <use x="63.623047" xlink:href="#DejaVuSans-48"/>
      </g>
     </g>
    </g>
    <g id="text_8">
     <!-- Segundos -->
     <defs>
      <path d="M 53.515625 70.515625 
L 53.515625 60.890625 
Q 47.90625 63.578125 42.921875 64.890625 
Q 37.9375 66.21875 33.296875 66.21875 
Q 25.25 66.21875 20.875 63.09375 
Q 16.5 59.96875 16.5 54.203125 
Q 16.5 49.359375 19.40625 46.890625 
Q 22.3125 44.4375 30.421875 42.921875 
L 36.375 41.703125 
Q 47.40625 39.59375 52.65625 34.296875 
Q 57.90625 29 57.90625 20.125 
Q 57.90625 9.515625 50.796875 4.046875 
Q 43.703125 -1.421875 29.984375 -1.421875 
Q 24.8125 -1.421875 18.96875 -0.25 
Q 13.140625 0.921875 6.890625 3.21875 
L 6.890625 13.375 
Q 12.890625 10.015625 18.65625 8.296875 
Q 24.421875 6.59375 29.984375 6.59375 
Q 38.421875 6.59375 43.015625 9.90625 
Q 47.609375 13.234375 47.609375 19.390625 
Q 47.609375 24.75 44.3125 27.78125 
Q 41.015625 30.8125 33.5 32.328125 
L 27.484375 33.5 
Q 16.453125 35.6875 11.515625 40.375 
Q 6.59375 45.0625 6.59375 53.421875 
Q 6.59375 63.09375 13.40625 68.65625 
Q 20.21875 74.21875 32.171875 74.21875 
Q 37.3125 74.21875 42.625 73.28125 
Q 47.953125 72.359375 53.515625 70.515625 
z
" id="DejaVuSans-83"/>
      <path d="M 56.203125 29.59375 
L 56.203125 25.203125 
L 14.890625 25.203125 
Q 15.484375 15.921875 20.484375 11.0625 
Q 25.484375 6.203125 34.421875 6.203125 
Q 39.59375 6.203125 44.453125 7.46875 
Q 49.3125 8.734375 54.109375 11.28125 
L 54.109375 2.78125 
Q 49.265625 0.734375 44.1875 -0.34375 
Q 39.109375 -1.421875 33.890625 -1.421875 
Q 20.796875 -1.421875 13.15625 6.1875 
Q 5.515625 13.8125 5.515625 26.8125 
Q 5.515625 40.234375 12.765625 48.109375 
Q 20.015625 56 32.328125 56 
Q 43.359375 56 49.78125 48.890625 
Q 56.203125 41.796875 56.203125 29.59375 
z
M 47.21875 32.234375 
Q 47.125 39.59375 43.09375 43.984375 
Q 39.0625 48.390625 32.421875 48.390625 
Q 24.90625 48.390625 20.390625 44.140625 
Q 15.875 39.890625 15.1875 32.171875 
z
" id="DejaVuSans-101"/>
      <path d="M 45.40625 27.984375 
Q 45.40625 37.75 41.375 43.109375 
Q 37.359375 48.484375 30.078125 48.484375 
Q 22.859375 48.484375 18.828125 43.109375 
Q 14.796875 37.75 14.796875 27.984375 
Q 14.796875 18.265625 18.828125 12.890625 
Q 22.859375 7.515625 30.078125 7.515625 
Q 37.359375 7.515625 41.375 12.890625 
Q 45.40625 18.265625 45.40625 27.984375 
z
M 54.390625 6.78125 
Q 54.390625 -7.171875 48.1875 -13.984375 
Q 42 -20.796875 29.203125 -20.796875 
Q 24.46875 -20.796875 20.265625 -20.09375 
Q 16.0625 -19.390625 12.109375 -17.921875 
L 12.109375 -9.1875 
Q 16.0625 -11.328125 19.921875 -12.34375 
Q 23.78125 -13.375 27.78125 -13.375 
Q 36.625 -13.375 41.015625 -8.765625 
Q 45.40625 -4.15625 45.40625 5.171875 
L 45.40625 9.625 
Q 42.625 4.78125 38.28125 2.390625 
Q 33.9375 0 27.875 0 
Q 17.828125 0 11.671875 7.65625 
Q 5.515625 15.328125 5.515625 27.984375 
Q 5.515625 40.671875 11.671875 48.328125 
Q 17.828125 56 27.875 56 
Q 33.9375 56 38.28125 53.609375 
Q 42.625 51.21875 45.40625 46.390625 
L 45.40625 54.6875 
L 54.390625 54.6875 
z
" id="DejaVuSans-103"/>
      <path d="M 8.5 21.578125 
L 8.5 54.6875 
L 17.484375 54.6875 
L 17.484375 21.921875 
Q 17.484375 14.15625 20.5 10.265625 
Q 23.53125 6.390625 29.59375 6.390625 
Q 36.859375 6.390625 41.078125 11.03125 
Q 45.3125 15.671875 45.3125 23.6875 
L 45.3125 54.6875 
L 54.296875 54.6875 
L 54.296875 0 
L 45.3125 0 
L 45.3125 8.40625 
Q 42.046875 3.421875 37.71875 1 
Q 33.40625 -1.421875 27.6875 -1.421875 
Q 18.265625 -1.421875 13.375 4.4375 
Q 8.5 10.296875 8.5 21.578125 
z
M 31.109375 56 
z
" id="DejaVuSans-117"/>
      <path d="M 54.890625 33.015625 
L 54.890625 0 
L 45.90625 0 
L 45.90625 32.71875 
Q 45.90625 40.484375 42.875 44.328125 
Q 39.84375 48.1875 33.796875 48.1875 
Q 26.515625 48.1875 22.3125 43.546875 
Q 18.109375 38.921875 18.109375 30.90625 
L 18.109375 0 
L 9.078125 0 
L 9.078125 54.6875 
L 18.109375 54.6875 
L 18.109375 46.1875 
Q 21.34375 51.125 25.703125 53.5625 
Q 30.078125 56 35.796875 56 
Q 45.21875 56 50.046875 50.171875 
Q 54.890625 44.34375 54.890625 33.015625 
z
" id="DejaVuSans-110"/>
      <path d="M 45.40625 46.390625 
L 45.40625 75.984375 
L 54.390625 75.984375 
L 54.390625 0 
L 45.40625 0 
L 45.40625 8.203125 
Q 42.578125 3.328125 38.25 0.953125 
Q 33.9375 -1.421875 27.875 -1.421875 
Q 17.96875 -1.421875 11.734375 6.484375 
Q 5.515625 14.40625 5.515625 27.296875 
Q 5.515625 40.1875 11.734375 48.09375 
Q 17.96875 56 27.875 56 
Q 33.9375 56 38.25 53.625 
Q 42.578125 51.265625 45.40625 46.390625 
z
M 14.796875 27.296875 
Q 14.796875 17.390625 18.875 11.75 
Q 22.953125 6.109375 30.078125 6.109375 
Q 37.203125 6.109375 41.296875 11.75 
Q 45.40625 17.390625 45.40625 27.296875 
Q 45.40625 37.203125 41.296875 42.84375 
Q 37.203125 48.484375 30.078125 48.484375 
Q 22.953125 48.484375 18.875 42.84375 
Q 14.796875 37.203125 14.796875 27.296875 
z
" id="DejaVuSans-100"/>
      <path d="M 30.609375 48.390625 
Q 23.390625 48.390625 19.1875 42.75 
Q 14.984375 37.109375 14.984375 27.296875 
Q 14.984375 17.484375 19.15625 11.84375 
Q 23.34375 6.203125 30.609375 6.203125 
Q 37.796875 6.203125 41.984375 11.859375 
Q 46.1875 17.53125 46.1875 27.296875 
Q 46.1875 37.015625 41.984375 42.703125 
Q 37.796875 48.390625 30.609375 48.390625 
z
M 30.609375 56 
Q 42.328125 56 49.015625 48.375 
Q 55.71875 40.765625 55.71875 27.296875 
Q 55.71875 13.875 49.015625 6.21875 
Q 42.328125 -1.421875 30.609375 -1.421875 
Q 18.84375 -1.421875 12.171875 6.21875 
Q 5.515625 13.875 5.515625 27.296875 
Q 5.515625 40.765625 12.171875 48.375 
Q 18.84375 56 30.609375 56 
z
" id="DejaVuSans-111"/>
      <path d="M 44.28125 53.078125 
L 44.28125 44.578125 
Q 40.484375 46.53125 36.375 47.5 
Q 32.28125 48.484375 27.875 48.484375 
Q 21.1875 48.484375 17.84375 46.4375 
Q 14.5 44.390625 14.5 40.28125 
Q 14.5 37.15625 16.890625 35.375 
Q 19.28125 33.59375 26.515625 31.984375 
L 29.59375 31.296875 
Q 39.15625 29.25 43.1875 25.515625 
Q 47.21875 21.78125 47.21875 15.09375 
Q 47.21875 7.46875 41.1875 3.015625 
Q 35.15625 -1.421875 24.609375 -1.421875 
Q 20.21875 -1.421875 15.453125 -0.5625 
Q 10.6875 0.296875 5.421875 2 
L 5.421875 11.28125 
Q 10.40625 8.6875 15.234375 7.390625 
Q 20.0625 6.109375 24.8125 6.109375 
Q 31.15625 6.109375 34.5625 8.28125 
Q 37.984375 10.453125 37.984375 14.40625 
Q 37.984375 18.0625 35.515625 20.015625 
Q 33.0625 21.96875 24.703125 23.78125 
L 21.578125 24.515625 
Q 13.234375 26.265625 9.515625 29.90625 
Q 5.8125 33.546875 5.8125 39.890625 
Q 5.8125 47.609375 11.28125 51.796875 
Q 16.75 56 26.8125 56 
Q 31.78125 56 36.171875 55.265625 
Q 40.578125 54.546875 44.28125 53.078125 
z
" id="DejaVuSans-115"/>
     </defs>
     <g transform="translate(295.706335 344.79625)scale(0.12 -0.12)">
      <use xlink:href="#DejaVuSans-83"/>
      <use x="63.476562" xlink:href="#DejaVuSans-101"/>
      <use x="125" xlink:href="#DejaVuSans-103"/>
      <use x="188.476562" xlink:href="#DejaVuSans-117"/>
      <use x="251.855469" xlink:href="#DejaVuSans-110"/>
      <use x="315.234375" xlink:href="#DejaVuSans-100"/>
      <use x="378.710938" xlink:href="#DejaVuSans-111"/>
      <use x="439.892578" xlink:href="#DejaVuSans-115"/>
     </g>
    </g>
   </g>
   <g id="matplotlib.axis_2">
    <g id="ytick_1">
     <g id="line2d_8">
      <defs>
       <path d="M 0 0 
L -3.5 0 
" id="m068d8bb259" style="stroke:#000000;stroke-width:0.8;"/>
      </defs>
      <g>
       <use style="stroke:#000000;stroke-width:0.8;" x="135" xlink:href="#m068d8bb259" y="302.645455"/>
      </g>
     </g>
     <g id="text_9">
      <!-- 0.0 -->
      <defs>
       <path d="M 10.6875 12.40625 
L 21 12.40625 
L 21 0 
L 10.6875 0 
z
" id="DejaVuSans-46"/>
      </defs>
      <g transform="translate(112.096875 306.444673)scale(0.1 -0.1)">
       <use xlink:href="#DejaVuSans-48"/>
       <use x="63.623047" xlink:href="#DejaVuSans-46"/>
       <use x="95.410156" xlink:href="#DejaVuSans-48"/>
      </g>
     </g>
    </g>
    <g id="ytick_2">
     <g id="line2d_9">
      <g>
       <use style="stroke:#000000;stroke-width:0.8;" x="135" xlink:href="#m068d8bb259" y="253.227273"/>
      </g>
     </g>
     <g id="text_10">
      <!-- 0.2 -->
      <g transform="translate(112.096875 257.026491)scale(0.1 -0.1)">
       <use xlink:href="#DejaVuSans-48"/>
       <use x="63.623047" xlink:href="#DejaVuSans-46"/>
       <use x="95.410156" xlink:href="#DejaVuSans-50"/>
      </g>
     </g>
    </g>
    <g id="ytick_3">
     <g id="line2d_10">
      <g>
       <use style="stroke:#000000;stroke-width:0.8;" x="135" xlink:href="#m068d8bb259" y="203.809091"/>
      </g>
     </g>
     <g id="text_11">
      <!-- 0.4 -->
      <defs>
       <path d="M 37.796875 64.3125 
L 12.890625 25.390625 
L 37.796875 25.390625 
z
M 35.203125 72.90625 
L 47.609375 72.90625 
L 47.609375 25.390625 
L 58.015625 25.390625 
L 58.015625 17.1875 
L 47.609375 17.1875 
L 47.609375 0 
L 37.796875 0 
L 37.796875 17.1875 
L 4.890625 17.1875 
L 4.890625 26.703125 
z
" id="DejaVuSans-52"/>
      </defs>
      <g transform="translate(112.096875 207.60831)scale(0.1 -0.1)">
       <use xlink:href="#DejaVuSans-48"/>
       <use x="63.623047" xlink:href="#DejaVuSans-46"/>
       <use x="95.410156" xlink:href="#DejaVuSans-52"/>
      </g>
     </g>
    </g>
    <g id="ytick_4">
     <g id="line2d_11">
      <g>
       <use style="stroke:#000000;stroke-width:0.8;" x="135" xlink:href="#m068d8bb259" y="154.390909"/>
      </g>
     </g>
     <g id="text_12">
      <!-- 0.6 -->
      <defs>
       <path d="M 33.015625 40.375 
Q 26.375 40.375 22.484375 35.828125 
Q 18.609375 31.296875 18.609375 23.390625 
Q 18.609375 15.53125 22.484375 10.953125 
Q 26.375 6.390625 33.015625 6.390625 
Q 39.65625 6.390625 43.53125 10.953125 
Q 47.40625 15.53125 47.40625 23.390625 
Q 47.40625 31.296875 43.53125 35.828125 
Q 39.65625 40.375 33.015625 40.375 
z
M 52.59375 71.296875 
L 52.59375 62.3125 
Q 48.875 64.0625 45.09375 64.984375 
Q 41.3125 65.921875 37.59375 65.921875 
Q 27.828125 65.921875 22.671875 59.328125 
Q 17.53125 52.734375 16.796875 39.40625 
Q 19.671875 43.65625 24.015625 45.921875 
Q 28.375 48.1875 33.59375 48.1875 
Q 44.578125 48.1875 50.953125 41.515625 
Q 57.328125 34.859375 57.328125 23.390625 
Q 57.328125 12.15625 50.6875 5.359375 
Q 44.046875 -1.421875 33.015625 -1.421875 
Q 20.359375 -1.421875 13.671875 8.265625 
Q 6.984375 17.96875 6.984375 36.375 
Q 6.984375 53.65625 15.1875 63.9375 
Q 23.390625 74.21875 37.203125 74.21875 
Q 40.921875 74.21875 44.703125 73.484375 
Q 48.484375 72.75 52.59375 71.296875 
z
" id="DejaVuSans-54"/>
      </defs>
      <g transform="translate(112.096875 158.190128)scale(0.1 -0.1)">
       <use xlink:href="#DejaVuSans-48"/>
       <use x="63.623047" xlink:href="#DejaVuSans-46"/>
       <use x="95.410156" xlink:href="#DejaVuSans-54"/>
      </g>
     </g>
    </g>
    <g id="ytick_5">
     <g id="line2d_12">
      <g>
       <use style="stroke:#000000;stroke-width:0.8;" x="135" xlink:href="#m068d8bb259" y="104.972727"/>
      </g>
     </g>
     <g id="text_13">
      <!-- 0.8 -->
      <defs>
       <path d="M 31.78125 34.625 
Q 24.75 34.625 20.71875 30.859375 
Q 16.703125 27.09375 16.703125 20.515625 
Q 16.703125 13.921875 20.71875 10.15625 
Q 24.75 6.390625 31.78125 6.390625 
Q 38.8125 6.390625 42.859375 10.171875 
Q 46.921875 13.96875 46.921875 20.515625 
Q 46.921875 27.09375 42.890625 30.859375 
Q 38.875 34.625 31.78125 34.625 
z
M 21.921875 38.8125 
Q 15.578125 40.375 12.03125 44.71875 
Q 8.5 49.078125 8.5 55.328125 
Q 8.5 64.0625 14.71875 69.140625 
Q 20.953125 74.21875 31.78125 74.21875 
Q 42.671875 74.21875 48.875 69.140625 
Q 55.078125 64.0625 55.078125 55.328125 
Q 55.078125 49.078125 51.53125 44.71875 
Q 48 40.375 41.703125 38.8125 
Q 48.828125 37.15625 52.796875 32.3125 
Q 56.78125 27.484375 56.78125 20.515625 
Q 56.78125 9.90625 50.3125 4.234375 
Q 43.84375 -1.421875 31.78125 -1.421875 
Q 19.734375 -1.421875 13.25 4.234375 
Q 6.78125 9.90625 6.78125 20.515625 
Q 6.78125 27.484375 10.78125 32.3125 
Q 14.796875 37.15625 21.921875 38.8125 
z
M 18.3125 54.390625 
Q 18.3125 48.734375 21.84375 45.5625 
Q 25.390625 42.390625 31.78125 42.390625 
Q 38.140625 42.390625 41.71875 45.5625 
Q 45.3125 48.734375 45.3125 54.390625 
Q 45.3125 60.0625 41.71875 63.234375 
Q 38.140625 66.40625 31.78125 66.40625 
Q 25.390625 66.40625 21.84375 63.234375 
Q 18.3125 60.0625 18.3125 54.390625 
z
" id="DejaVuSans-56"/>
      </defs>
      <g transform="translate(112.096875 108.771946)scale(0.1 -0.1)">
       <use xlink:href="#DejaVuSans-48"/>
       <use x="63.623047" xlink:href="#DejaVuSans-46"/>
       <use x="95.410156" xlink:href="#DejaVuSans-56"/>
      </g>
     </g>
    </g>
    <g id="ytick_6">
     <g id="line2d_13">
      <g>
       <use style="stroke:#000000;stroke-width:0.8;" x="135" xlink:href="#m068d8bb259" y="55.554545"/>
      </g>
     </g>
     <g id="text_14">
      <!-- 1.0 -->
      <g transform="translate(112.096875 59.353764)scale(0.1 -0.1)">
       <use xlink:href="#DejaVuSans-49"/>
       <use x="63.623047" xlink:href="#DejaVuSans-46"/>
       <use x="95.410156" xlink:href="#DejaVuSans-48"/>
      </g>
     </g>
    </g>
    <g id="text_15">
     <!-- Poblacion -->
     <defs>
      <path d="M 19.671875 64.796875 
L 19.671875 37.40625 
L 32.078125 37.40625 
Q 38.96875 37.40625 42.71875 40.96875 
Q 46.484375 44.53125 46.484375 51.125 
Q 46.484375 57.671875 42.71875 61.234375 
Q 38.96875 64.796875 32.078125 64.796875 
z
M 9.8125 72.90625 
L 32.078125 72.90625 
Q 44.34375 72.90625 50.609375 67.359375 
Q 56.890625 61.8125 56.890625 51.125 
Q 56.890625 40.328125 50.609375 34.8125 
Q 44.34375 29.296875 32.078125 29.296875 
L 19.671875 29.296875 
L 19.671875 0 
L 9.8125 0 
z
" id="DejaVuSans-80"/>
      <path d="M 48.6875 27.296875 
Q 48.6875 37.203125 44.609375 42.84375 
Q 40.53125 48.484375 33.40625 48.484375 
Q 26.265625 48.484375 22.1875 42.84375 
Q 18.109375 37.203125 18.109375 27.296875 
Q 18.109375 17.390625 22.1875 11.75 
Q 26.265625 6.109375 33.40625 6.109375 
Q 40.53125 6.109375 44.609375 11.75 
Q 48.6875 17.390625 48.6875 27.296875 
z
M 18.109375 46.390625 
Q 20.953125 51.265625 25.265625 53.625 
Q 29.59375 56 35.59375 56 
Q 45.5625 56 51.78125 48.09375 
Q 58.015625 40.1875 58.015625 27.296875 
Q 58.015625 14.40625 51.78125 6.484375 
Q 45.5625 -1.421875 35.59375 -1.421875 
Q 29.59375 -1.421875 25.265625 0.953125 
Q 20.953125 3.328125 18.109375 8.203125 
L 18.109375 0 
L 9.078125 0 
L 9.078125 75.984375 
L 18.109375 75.984375 
z
" id="DejaVuSans-98"/>
      <path d="M 9.421875 75.984375 
L 18.40625 75.984375 
L 18.40625 0 
L 9.421875 0 
z
" id="DejaVuSans-108"/>
      <path d="M 34.28125 27.484375 
Q 23.390625 27.484375 19.1875 25 
Q 14.984375 22.515625 14.984375 16.5 
Q 14.984375 11.71875 18.140625 8.90625 
Q 21.296875 6.109375 26.703125 6.109375 
Q 34.1875 6.109375 38.703125 11.40625 
Q 43.21875 16.703125 43.21875 25.484375 
L 43.21875 27.484375 
z
M 52.203125 31.203125 
L 52.203125 0 
L 43.21875 0 
L 43.21875 8.296875 
Q 40.140625 3.328125 35.546875 0.953125 
Q 30.953125 -1.421875 24.3125 -1.421875 
Q 15.921875 -1.421875 10.953125 3.296875 
Q 6 8.015625 6 15.921875 
Q 6 25.140625 12.171875 29.828125 
Q 18.359375 34.515625 30.609375 34.515625 
L 43.21875 34.515625 
L 43.21875 35.40625 
Q 43.21875 41.609375 39.140625 45 
Q 35.0625 48.390625 27.6875 48.390625 
Q 23 48.390625 18.546875 47.265625 
Q 14.109375 46.140625 10.015625 43.890625 
L 10.015625 52.203125 
Q 14.9375 54.109375 19.578125 55.046875 
Q 24.21875 56 28.609375 56 
Q 40.484375 56 46.34375 49.84375 
Q 52.203125 43.703125 52.203125 31.203125 
z
" id="DejaVuSans-97"/>
      <path d="M 48.78125 52.59375 
L 48.78125 44.1875 
Q 44.96875 46.296875 41.140625 47.34375 
Q 37.3125 48.390625 33.40625 48.390625 
Q 24.65625 48.390625 19.8125 42.84375 
Q 14.984375 37.3125 14.984375 27.296875 
Q 14.984375 17.28125 19.8125 11.734375 
Q 24.65625 6.203125 33.40625 6.203125 
Q 37.3125 6.203125 41.140625 7.25 
Q 44.96875 8.296875 48.78125 10.40625 
L 48.78125 2.09375 
Q 45.015625 0.34375 40.984375 -0.53125 
Q 36.96875 -1.421875 32.421875 -1.421875 
Q 20.0625 -1.421875 12.78125 6.34375 
Q 5.515625 14.109375 5.515625 27.296875 
Q 5.515625 40.671875 12.859375 48.328125 
Q 20.21875 56 33.015625 56 
Q 37.15625 56 41.109375 55.140625 
Q 45.0625 54.296875 48.78125 52.59375 
z
" id="DejaVuSans-99"/>
      <path d="M 9.421875 54.6875 
L 18.40625 54.6875 
L 18.40625 0 
L 9.421875 0 
z
M 9.421875 75.984375 
L 18.40625 75.984375 
L 18.40625 64.59375 
L 9.421875 64.59375 
z
" id="DejaVuSans-105"/>
     </defs>
     <g transform="translate(105.60125 207.97875)rotate(-90)scale(0.12 -0.12)">
      <use xlink:href="#DejaVuSans-80"/>
      <use x="60.255859" xlink:href="#DejaVuSans-111"/>
      <use x="121.4375" xlink:href="#DejaVuSans-98"/>
      <use x="184.914062" xlink:href="#DejaVuSans-108"/>
      <use x="212.697266" xlink:href="#DejaVuSans-97"/>
      <use x="273.976562" xlink:href="#DejaVuSans-99"/>
      <use x="328.957031" xlink:href="#DejaVuSans-105"/>
      <use x="356.740234" xlink:href="#DejaVuSans-111"/>
      <use x="417.921875" xlink:href="#DejaVuSans-110"/>
     </g>
    </g>
   </g>
   <g id="line2d_14">
    <path clip-path="url(#p813a3fc4a4)" d="M 135 55.554545 
L 147.681818 55.554545 
L 147.681818 79.644804 
L 160.363636 79.644804 
L 160.363636 103.072028 
L 173.045455 103.072028 
L 173.045455 126.941275 
L 185.727273 126.941275 
L 185.727273 145.506245 
L 198.409091 145.506245 
L 198.409091 158.324915 
L 211.090909 158.324915 
L 211.090909 169.817515 
L 223.772727 169.817515 
L 223.772727 177.773931 
L 236.454545 177.773931 
L 236.454545 188.824508 
L 249.136364 188.824508 
L 249.136364 198.549016 
L 261.818182 198.549016 
L 261.818182 210.041617 
L 274.5 210.041617 
L 274.5 218.219044 
L 287.181818 218.219044 
L 287.181818 225.070402 
L 299.863636 225.070402 
L 299.863636 231.92176 
L 312.545455 231.92176 
L 312.545455 240.099187 
L 325.227273 240.099187 
L 325.227273 248.276614 
L 337.909091 248.276614 
L 337.909091 257.780111 
L 350.590909 257.780111 
L 350.590909 260.653261 
L 363.272727 260.653261 
L 363.272727 267.062596 
L 375.954545 267.062596 
L 375.954545 270.59878 
L 388.636364 270.59878 
L 388.636364 273.250919 
L 401.318182 273.250919 
L 401.318182 277.008115 
L 414 277.008115 
L 414 279.439242 
L 426.681818 279.439242 
L 426.681818 283.638462 
L 439.363636 283.638462 
L 439.363636 287.174646 
L 452.045455 287.174646 
L 452.045455 289.605773 
L 464.727273 289.605773 
L 464.727273 293.36297 
L 477.409091 293.36297 
L 477.409091 297.341177 
L 490.090909 297.341177 
L 490.090909 299.993316 
L 502.772727 299.993316 
L 502.772727 301.098374 
L 515.454545 301.098374 
L 515.454545 302.645455 
" style="fill:none;stroke:#1f77b4;stroke-linecap:square;stroke-width:1.5;"/>
   </g>
   <g id="line2d_15">
    <path clip-path="url(#p813a3fc4a4)" d="M 135 55.554545 
L 147.681818 55.554545 
L 147.681818 107.962562 
L 160.363636 107.962562 
L 160.363636 146.452383 
L 173.045455 146.452383 
L 173.045455 191.987217 
L 185.727273 191.987217 
L 185.727273 217.933481 
L 198.409091 217.933481 
L 198.409091 234.429119 
L 211.090909 234.429119 
L 211.090909 241.81779 
L 223.772727 241.81779 
L 223.772727 250.752927 
L 236.454545 250.752927 
L 236.454545 258.313428 
L 249.136364 258.313428 
L 249.136364 261.921849 
L 261.818182 261.921849 
L 261.818182 267.076735 
L 274.5 267.076735 
L 274.5 272.91894 
L 287.181818 272.91894 
L 287.181818 275.324554 
L 299.863636 275.324554 
L 299.863636 278.073827 
L 312.545455 278.073827 
L 312.545455 279.448464 
L 325.227273 279.448464 
L 325.227273 280.8231 
L 337.909091 280.8231 
L 337.909091 282.541396 
L 350.590909 282.541396 
L 350.590909 284.431521 
L 363.272727 284.431521 
L 363.272727 286.149817 
L 375.954545 286.149817 
L 375.954545 289.242749 
L 388.636364 289.242749 
L 388.636364 291.476533 
L 401.318182 291.476533 
L 401.318182 292.50751 
L 414 292.50751 
L 414 293.710317 
L 426.681818 293.710317 
L 426.681818 295.256783 
L 439.363636 295.256783 
L 439.363636 296.45959 
L 452.045455 296.45959 
L 452.045455 296.63142 
L 464.727273 296.63142 
L 464.727273 298.865204 
L 477.409091 298.865204 
L 477.409091 300.5835 
L 490.090909 300.5835 
L 490.090909 301.442648 
L 502.772727 301.442648 
L 502.772727 301.786307 
L 515.454545 301.786307 
L 515.454545 302.645455 
" style="fill:none;stroke:#ff7f0e;stroke-linecap:square;stroke-width:1.5;"/>
   </g>
   <g id="patch_3">
    <path d="M 135 315 
L 135 43.2 
" style="fill:none;stroke:#000000;stroke-linecap:square;stroke-linejoin:miter;stroke-width:0.8;"/>
   </g>
   <g id="patch_4">
    <path d="M 515.454545 315 
L 515.454545 43.2 
" style="fill:none;stroke:#000000;stroke-linecap:square;stroke-linejoin:miter;stroke-width:0.8;"/>
   </g>
   <g id="patch_5">
    <path d="M 135 315 
L 515.454545 315 
" style="fill:none;stroke:#000000;stroke-linecap:square;stroke-linejoin:miter;stroke-width:0.8;"/>
   </g>
   <g id="patch_6">
    <path d="M 135 43.2 
L 515.454545 43.2 
" style="fill:none;stroke:#000000;stroke-linecap:square;stroke-linejoin:miter;stroke-width:0.8;"/>
   </g>
   <g id="text_16">
    <!-- Funcion de supervivencia -->
    <defs>
     <path d="M 9.8125 72.90625 
L 51.703125 72.90625 
L 51.703125 64.59375 
L 19.671875 64.59375 
L 19.671875 43.109375 
L 48.578125 43.109375 
L 48.578125 34.8125 
L 19.671875 34.8125 
L 19.671875 0 
L 9.8125 0 
z
" id="DejaVuSans-70"/>
     <path id="DejaVuSans-32"/>
     <path d="M 18.109375 8.203125 
L 18.109375 -20.796875 
L 9.078125 -20.796875 
L 9.078125 54.6875 
L 18.109375 54.6875 
L 18.109375 46.390625 
Q 20.953125 51.265625 25.265625 53.625 
Q 29.59375 56 35.59375 56 
Q 45.5625 56 51.78125 48.09375 
Q 58.015625 40.1875 58.015625 27.296875 
Q 58.015625 14.40625 51.78125 6.484375 
Q 45.5625 -1.421875 35.59375 -1.421875 
Q 29.59375 -1.421875 25.265625 0.953125 
Q 20.953125 3.328125 18.109375 8.203125 
z
M 48.6875 27.296875 
Q 48.6875 37.203125 44.609375 42.84375 
Q 40.53125 48.484375 33.40625 48.484375 
Q 26.265625 48.484375 22.1875 42.84375 
Q 18.109375 37.203125 18.109375 27.296875 
Q 18.109375 17.390625 22.1875 11.75 
Q 26.265625 6.109375 33.40625 6.109375 
Q 40.53125 6.109375 44.609375 11.75 
Q 48.6875 17.390625 48.6875 27.296875 
z
" id="DejaVuSans-112"/>
     <path d="M 41.109375 46.296875 
Q 39.59375 47.171875 37.8125 47.578125 
Q 36.03125 48 33.890625 48 
Q 26.265625 48 22.1875 43.046875 
Q 18.109375 38.09375 18.109375 28.8125 
L 18.109375 0 
L 9.078125 0 
L 9.078125 54.6875 
L 18.109375 54.6875 
L 18.109375 46.1875 
Q 20.953125 51.171875 25.484375 53.578125 
Q 30.03125 56 36.53125 56 
Q 37.453125 56 38.578125 55.875 
Q 39.703125 55.765625 41.0625 55.515625 
z
" id="DejaVuSans-114"/>
     <path d="M 2.984375 54.6875 
L 12.5 54.6875 
L 29.59375 8.796875 
L 46.6875 54.6875 
L 56.203125 54.6875 
L 35.6875 0 
L 23.484375 0 
z
" id="DejaVuSans-118"/>
    </defs>
    <g transform="translate(235.851491 37.2)scale(0.14 -0.14)">
     <use xlink:href="#DejaVuSans-70"/>
     <use x="57.441406" xlink:href="#DejaVuSans-117"/>
     <use x="120.820312" xlink:href="#DejaVuSans-110"/>
     <use x="184.199219" xlink:href="#DejaVuSans-99"/>
     <use x="239.179688" xlink:href="#DejaVuSans-105"/>
     <use x="266.962891" xlink:href="#DejaVuSans-111"/>
     <use x="328.144531" xlink:href="#DejaVuSans-110"/>
     <use x="391.523438" xlink:href="#DejaVuSans-32"/>
     <use x="423.310547" xlink:href="#DejaVuSans-100"/>
     <use x="486.787109" xlink:href="#DejaVuSans-101"/>
     <use x="548.310547" xlink:href="#DejaVuSans-32"/>
     <use x="580.097656" xlink:href="#DejaVuSans-115"/>
     <use x="632.197266" xlink:href="#DejaVuSans-117"/>
     <use x="695.576172" xlink:href="#DejaVuSans-112"/>
     <use x="759.052734" xlink:href="#DejaVuSans-101"/>
     <use x="820.576172" xlink:href="#DejaVuSans-114"/>
     <use x="861.689453" xlink:href="#DejaVuSans-118"/>
     <use x="920.869141" xlink:href="#DejaVuSans-105"/>
     <use x="948.652344" xlink:href="#DejaVuSans-118"/>
     <use x="1007.832031" xlink:href="#DejaVuSans-101"/>
     <use x="1069.355469" xlink:href="#DejaVuSans-110"/>
     <use x="1132.734375" xlink:href="#DejaVuSans-99"/>
     <use x="1187.714844" xlink:href="#DejaVuSans-105"/>
     <use x="1215.498047" xlink:href="#DejaVuSans-97"/>
    </g>
   </g>
   <g id="legend_1">
    <g id="patch_7">
     <path d="M 374.867045 80.55625 
L 508.454545 80.55625 
Q 510.454545 80.55625 510.454545 78.55625 
L 510.454545 50.2 
Q 510.454545 48.2 508.454545 48.2 
L 374.867045 48.2 
Q 372.867045 48.2 372.867045 50.2 
L 372.867045 78.55625 
Q 372.867045 80.55625 374.867045 80.55625 
z
" style="fill:#ffffff;opacity:0.8;stroke:#cccccc;stroke-linejoin:miter;"/>
    </g>
    <g id="line2d_16">
     <path d="M 376.867045 56.298437 
L 396.867045 56.298437 
" style="fill:none;stroke:#1f77b4;stroke-linecap:square;stroke-width:1.5;"/>
    </g>
    <g id="line2d_17"/>
    <g id="text_17">
     <!-- Brand mas usada -->
     <defs>
      <path d="M 19.671875 34.8125 
L 19.671875 8.109375 
L 35.5 8.109375 
Q 43.453125 8.109375 47.28125 11.40625 
Q 51.125 14.703125 51.125 21.484375 
Q 51.125 28.328125 47.28125 31.5625 
Q 43.453125 34.8125 35.5 34.8125 
z
M 19.671875 64.796875 
L 19.671875 42.828125 
L 34.28125 42.828125 
Q 41.5 42.828125 45.03125 45.53125 
Q 48.578125 48.25 48.578125 53.8125 
Q 48.578125 59.328125 45.03125 62.0625 
Q 41.5 64.796875 34.28125 64.796875 
z
M 9.8125 72.90625 
L 35.015625 72.90625 
Q 46.296875 72.90625 52.390625 68.21875 
Q 58.5 63.53125 58.5 54.890625 
Q 58.5 48.1875 55.375 44.234375 
Q 52.25 40.28125 46.1875 39.3125 
Q 53.46875 37.75 57.5 32.78125 
Q 61.53125 27.828125 61.53125 20.40625 
Q 61.53125 10.640625 54.890625 5.3125 
Q 48.25 0 35.984375 0 
L 9.8125 0 
z
" id="DejaVuSans-66"/>
      <path d="M 52 44.1875 
Q 55.375 50.25 60.0625 53.125 
Q 64.75 56 71.09375 56 
Q 79.640625 56 84.28125 50.015625 
Q 88.921875 44.046875 88.921875 33.015625 
L 88.921875 0 
L 79.890625 0 
L 79.890625 32.71875 
Q 79.890625 40.578125 77.09375 44.375 
Q 74.3125 48.1875 68.609375 48.1875 
Q 61.625 48.1875 57.5625 43.546875 
Q 53.515625 38.921875 53.515625 30.90625 
L 53.515625 0 
L 44.484375 0 
L 44.484375 32.71875 
Q 44.484375 40.625 41.703125 44.40625 
Q 38.921875 48.1875 33.109375 48.1875 
Q 26.21875 48.1875 22.15625 43.53125 
Q 18.109375 38.875 18.109375 30.90625 
L 18.109375 0 
L 9.078125 0 
L 9.078125 54.6875 
L 18.109375 54.6875 
L 18.109375 46.1875 
Q 21.1875 51.21875 25.484375 53.609375 
Q 29.78125 56 35.6875 56 
Q 41.65625 56 45.828125 52.96875 
Q 50 49.953125 52 44.1875 
z
" id="DejaVuSans-109"/>
     </defs>
     <g transform="translate(404.867045 59.798437)scale(0.1 -0.1)">
      <use xlink:href="#DejaVuSans-66"/>
      <use x="68.603516" xlink:href="#DejaVuSans-114"/>
      <use x="109.716797" xlink:href="#DejaVuSans-97"/>
      <use x="170.996094" xlink:href="#DejaVuSans-110"/>
      <use x="234.375" xlink:href="#DejaVuSans-100"/>
      <use x="297.851562" xlink:href="#DejaVuSans-32"/>
      <use x="329.638672" xlink:href="#DejaVuSans-109"/>
      <use x="427.050781" xlink:href="#DejaVuSans-97"/>
      <use x="488.330078" xlink:href="#DejaVuSans-115"/>
      <use x="540.429688" xlink:href="#DejaVuSans-32"/>
      <use x="572.216797" xlink:href="#DejaVuSans-117"/>
      <use x="635.595703" xlink:href="#DejaVuSans-115"/>
      <use x="687.695312" xlink:href="#DejaVuSans-97"/>
      <use x="748.974609" xlink:href="#DejaVuSans-100"/>
      <use x="812.451172" xlink:href="#DejaVuSans-97"/>
     </g>
    </g>
    <g id="line2d_18">
     <path d="M 376.867045 70.976562 
L 396.867045 70.976562 
" style="fill:none;stroke:#ff7f0e;stroke-linecap:square;stroke-width:1.5;"/>
    </g>
    <g id="line2d_19"/>
    <g id="text_18">
     <!-- Segunda mas usada -->
     <g transform="translate(404.867045 74.476562)scale(0.1 -0.1)">
      <use xlink:href="#DejaVuSans-83"/>
      <use x="63.476562" xlink:href="#DejaVuSans-101"/>
      <use x="125" xlink:href="#DejaVuSans-103"/>
      <use x="188.476562" xlink:href="#DejaVuSans-117"/>
      <use x="251.855469" xlink:href="#DejaVuSans-110"/>
      <use x="315.234375" xlink:href="#DejaVuSans-100"/>
      <use x="378.710938" xlink:href="#DejaVuSans-97"/>
      <use x="439.990234" xlink:href="#DejaVuSans-32"/>
      <use x="471.777344" xlink:href="#DejaVuSans-109"/>
      <use x="569.189453" xlink:href="#DejaVuSans-97"/>
      <use x="630.46875" xlink:href="#DejaVuSans-115"/>
      <use x="682.568359" xlink:href="#DejaVuSans-32"/>
      <use x="714.355469" xlink:href="#DejaVuSans-117"/>
      <use x="777.734375" xlink:href="#DejaVuSans-115"/>
      <use x="829.833984" xlink:href="#DejaVuSans-97"/>
      <use x="891.113281" xlink:href="#DejaVuSans-100"/>
      <use x="954.589844" xlink:href="#DejaVuSans-97"/>
     </g>
    </g>
   </g>
  </g>
  <g id="axes_2">
   <g id="patch_8">
    <path d="M 591.545455 315 
L 972 315 
L 972 43.2 
L 591.545455 43.2 
z
" style="fill:#ffffff;"/>
   </g>
   <g id="PolyCollection_3">
    <defs>
     <path d="M 604.227273 -77.493178 
L 604.227273 -86.12138 
L 616.909091 -86.12138 
L 616.909091 -110.887665 
L 629.590909 -110.887665 
L 629.590909 -135.544171 
L 642.272727 -135.544171 
L 642.272727 -154.460196 
L 654.954545 -154.460196 
L 654.954545 -167.411962 
L 667.636364 -167.411962 
L 667.636364 -178.954263 
L 680.318182 -178.954263 
L 680.318182 -186.90782 
L 693 -186.90782 
L 693 -197.904336 
L 705.681818 -197.904336 
L 705.681818 -207.532617 
L 718.363636 -207.532617 
L 718.363636 -218.850808 
L 731.045455 -218.850808 
L 731.045455 -226.862002 
L 743.727273 -226.862002 
L 743.727273 -233.545307 
L 756.409091 -233.545307 
L 756.409091 -240.200487 
L 769.090909 -240.200487 
L 769.090909 -248.103626 
L 781.772727 -248.103626 
L 781.772727 -255.957877 
L 794.454545 -255.957877 
L 794.454545 -265.01392 
L 807.136364 -265.01392 
L 807.136364 -267.734123 
L 819.818182 -267.734123 
L 819.818182 -273.767327 
L 832.5 -273.767327 
L 832.5 -277.072317 
L 845.181818 -277.072317 
L 845.181818 -279.538212 
L 857.863636 -279.538212 
L 857.863636 -283.00988 
L 870.545455 -283.00988 
L 870.545455 -285.240662 
L 883.227273 -285.240662 
L 883.227273 -289.058869 
L 895.909091 -289.058869 
L 895.909091 -292.231181 
L 908.590909 -292.231181 
L 908.590909 -294.382388 
L 921.272727 -294.382388 
L 921.272727 -297.640781 
L 933.954545 -297.640781 
L 933.954545 -300.949351 
L 946.636364 -300.949351 
L 946.636364 -302.988706 
L 959.318182 -302.988706 
L 959.318182 -303.746769 
L 972 -303.746769 
L 972 -304.445455 
L 972 -304.445455 
L 972 -304.445455 
L 972 -301.369505 
L 959.318182 -301.369505 
L 959.318182 -299.943125 
L 946.636364 -299.943125 
L 946.636364 -296.71964 
L 933.954545 -296.71964 
L 933.954545 -292.118278 
L 921.272727 -292.118278 
L 921.272727 -287.899445 
L 908.590909 -287.899445 
L 908.590909 -285.210514 
L 895.909091 -285.210514 
L 895.909091 -281.340796 
L 883.227273 -281.340796 
L 883.227273 -276.794545 
L 870.545455 -276.794545 
L 870.545455 -274.181971 
L 857.863636 -274.181971 
L 857.863636 -270.167568 
L 845.181818 -270.167568 
L 845.181818 -267.348632 
L 832.5 -267.348632 
L 832.5 -263.606594 
L 819.818182 -263.606594 
L 819.818182 -256.865646 
L 807.136364 -256.865646 
L 807.136364 -253.859009 
L 794.454545 -253.859009 
L 794.454545 -243.970681 
L 781.772727 -243.970681 
L 781.772727 -235.522222 
L 769.090909 -235.522222 
L 769.090909 -227.121383 
L 756.409091 -227.121383 
L 756.409091 -220.11566 
L 743.727273 -220.11566 
L 743.727273 -213.137428 
L 731.045455 -213.137428 
L 731.045455 -204.842194 
L 718.363636 -204.842194 
L 718.363636 -193.242103 
L 705.681818 -193.242103 
L 705.681818 -183.477101 
L 693 -183.477101 
L 693 -172.434947 
L 680.318182 -172.434947 
L 680.318182 -164.520168 
L 667.636364 -164.520168 
L 667.636364 -153.140898 
L 654.954545 -153.140898 
L 654.954545 -140.525506 
L 642.272727 -140.525506 
L 642.272727 -122.411976 
L 629.590909 -122.411976 
L 629.590909 -99.457323 
L 616.909091 -99.457323 
L 616.909091 -77.493178 
L 604.227273 -77.493178 
z
" id="mf35c813d30" style="stroke:#1f77b4;stroke-opacity:0.25;"/>
    </defs>
    <g clip-path="url(#p63208ba6b1)">
     <use style="fill:#1f77b4;fill-opacity:0.25;stroke:#1f77b4;stroke-opacity:0.25;" x="0" xlink:href="#mf35c813d30" y="360"/>
    </g>
   </g>
   <g id="PolyCollection_4">
    <defs>
     <path d="M 604.227273 -104.761618 
L 604.227273 -115.210588 
L 616.909091 -115.210588 
L 616.909091 -154.552768 
L 629.590909 -154.552768 
L 629.590909 -200.178256 
L 642.272727 -200.178256 
L 642.272727 -225.776186 
L 654.954545 -225.776186 
L 654.954545 -241.880329 
L 667.636364 -241.880329 
L 667.636364 -249.043294 
L 680.318182 -249.043294 
L 680.318182 -257.656734 
L 693 -257.656734 
L 693 -264.896506 
L 705.681818 -264.896506 
L 705.681818 -268.33358 
L 718.363636 -268.33358 
L 718.363636 -273.219893 
L 731.045455 -273.219893 
L 731.045455 -278.717922 
L 743.727273 -278.717922 
L 743.727273 -280.967253 
L 756.409091 -280.967253 
L 756.409091 -283.525687 
L 769.090909 -283.525687 
L 769.090909 -284.799446 
L 781.772727 -284.799446 
L 781.772727 -286.069182 
L 794.454545 -286.069182 
L 794.454545 -287.650163 
L 807.136364 -287.650163 
L 807.136364 -289.380385 
L 819.818182 -289.380385 
L 819.818182 -290.94417 
L 832.5 -290.94417 
L 832.5 -293.732596 
L 845.181818 -293.732596 
L 845.181818 -295.720035 
L 857.863636 -295.720035 
L 857.863636 -296.627889 
L 870.545455 -296.627889 
L 870.545455 -297.677928 
L 883.227273 -297.677928 
L 883.227273 -299.01045 
L 895.909091 -299.01045 
L 895.909091 -300.029633 
L 908.590909 -300.029633 
L 908.590909 -300.173738 
L 921.272727 -300.173738 
L 921.272727 -302.000886 
L 933.954545 -302.000886 
L 933.954545 -303.311487 
L 946.636364 -303.311487 
L 946.636364 -303.901052 
L 959.318182 -303.901052 
L 959.318182 -304.111934 
L 972 -304.111934 
L 972 -304.445455 
L 972 -304.445455 
L 972 -304.445455 
L 972 -302.51275 
L 959.318182 -302.51275 
L 959.318182 -302.047384 
L 946.636364 -302.047384 
L 946.636364 -300.936978 
L 933.954545 -300.936978 
L 933.954545 -298.835495 
L 921.272727 -298.835495 
L 921.272727 -296.219144 
L 908.590909 -296.219144 
L 908.590909 -296.021255 
L 895.909091 -296.021255 
L 895.909091 -294.645979 
L 883.227273 -294.645979 
L 883.227273 -292.898894 
L 870.545455 -292.898894 
L 870.545455 -291.553086 
L 857.863636 -291.553086 
L 857.863636 -290.40703 
L 845.181818 -290.40703 
L 845.181818 -287.943505 
L 832.5 -287.943505 
L 832.5 -284.567641 
L 819.818182 -284.567641 
L 819.818182 -282.706276 
L 807.136364 -282.706276 
L 807.136364 -280.668474 
L 794.454545 -280.668474 
L 794.454545 -278.823697 
L 781.772727 -278.823697 
L 781.772727 -277.352658 
L 769.090909 -277.352658 
L 769.090909 -275.885507 
L 756.409091 -275.885507 
L 756.409091 -272.961763 
L 743.727273 -272.961763 
L 743.727273 -270.413844 
L 731.045455 -270.413844 
L 731.045455 -264.26032 
L 718.363636 -264.26032 
L 718.363636 -258.864814 
L 705.681818 -258.864814 
L 705.681818 -255.104146 
L 693 -255.104146 
L 693 -247.26191 
L 680.318182 -247.26191 
L 680.318182 -238.049713 
L 667.636364 -238.049713 
L 667.636364 -230.471303 
L 654.954545 -230.471303 
L 654.954545 -213.662081 
L 642.272727 -213.662081 
L 642.272727 -187.485172 
L 629.590909 -187.485172 
L 629.590909 -142.23825 
L 616.909091 -142.23825 
L 616.909091 -104.761618 
L 604.227273 -104.761618 
z
" id="ma7f1a1db80" style="stroke:#ff7f0e;stroke-opacity:0.25;"/>
    </defs>
    <g clip-path="url(#p63208ba6b1)">
     <use style="fill:#ff7f0e;fill-opacity:0.25;stroke:#ff7f0e;stroke-opacity:0.25;" x="0" xlink:href="#ma7f1a1db80" y="360"/>
    </g>
   </g>
   <g id="matplotlib.axis_3">
    <g id="xtick_8">
     <g id="line2d_20">
      <g>
       <use style="stroke:#000000;stroke-width:0.8;" x="591.545455" xlink:href="#m7e6cc9dbee" y="315"/>
      </g>
     </g>
     <g id="text_19">
      <!-- 0 -->
      <g transform="translate(588.364205 329.598437)scale(0.1 -0.1)">
       <use xlink:href="#DejaVuSans-48"/>
      </g>
     </g>
    </g>
    <g id="xtick_9">
     <g id="line2d_21">
      <g>
       <use style="stroke:#000000;stroke-width:0.8;" x="654.954545" xlink:href="#m7e6cc9dbee" y="315"/>
      </g>
     </g>
     <g id="text_20">
      <!-- 5 -->
      <g transform="translate(651.773295 329.598437)scale(0.1 -0.1)">
       <use xlink:href="#DejaVuSans-53"/>
      </g>
     </g>
    </g>
    <g id="xtick_10">
     <g id="line2d_22">
      <g>
       <use style="stroke:#000000;stroke-width:0.8;" x="718.363636" xlink:href="#m7e6cc9dbee" y="315"/>
      </g>
     </g>
     <g id="text_21">
      <!-- 10 -->
      <g transform="translate(712.001136 329.598437)scale(0.1 -0.1)">
       <use xlink:href="#DejaVuSans-49"/>
       <use x="63.623047" xlink:href="#DejaVuSans-48"/>
      </g>
     </g>
    </g>
    <g id="xtick_11">
     <g id="line2d_23">
      <g>
       <use style="stroke:#000000;stroke-width:0.8;" x="781.772727" xlink:href="#m7e6cc9dbee" y="315"/>
      </g>
     </g>
     <g id="text_22">
      <!-- 15 -->
      <g transform="translate(775.410227 329.598437)scale(0.1 -0.1)">
       <use xlink:href="#DejaVuSans-49"/>
       <use x="63.623047" xlink:href="#DejaVuSans-53"/>
      </g>
     </g>
    </g>
    <g id="xtick_12">
     <g id="line2d_24">
      <g>
       <use style="stroke:#000000;stroke-width:0.8;" x="845.181818" xlink:href="#m7e6cc9dbee" y="315"/>
      </g>
     </g>
     <g id="text_23">
      <!-- 20 -->
      <g transform="translate(838.819318 329.598437)scale(0.1 -0.1)">
       <use xlink:href="#DejaVuSans-50"/>
       <use x="63.623047" xlink:href="#DejaVuSans-48"/>
      </g>
     </g>
    </g>
    <g id="xtick_13">
     <g id="line2d_25">
      <g>
       <use style="stroke:#000000;stroke-width:0.8;" x="908.590909" xlink:href="#m7e6cc9dbee" y="315"/>
      </g>
     </g>
     <g id="text_24">
      <!-- 25 -->
      <g transform="translate(902.228409 329.598437)scale(0.1 -0.1)">
       <use xlink:href="#DejaVuSans-50"/>
       <use x="63.623047" xlink:href="#DejaVuSans-53"/>
      </g>
     </g>
    </g>
    <g id="xtick_14">
     <g id="line2d_26">
      <g>
       <use style="stroke:#000000;stroke-width:0.8;" x="972" xlink:href="#m7e6cc9dbee" y="315"/>
      </g>
     </g>
     <g id="text_25">
      <!-- 30 -->
      <g transform="translate(965.6375 329.598437)scale(0.1 -0.1)">
       <use xlink:href="#DejaVuSans-51"/>
       <use x="63.623047" xlink:href="#DejaVuSans-48"/>
      </g>
     </g>
    </g>
    <g id="text_26">
     <!-- Segundos -->
     <g transform="translate(752.25179 344.79625)scale(0.12 -0.12)">
      <use xlink:href="#DejaVuSans-83"/>
      <use x="63.476562" xlink:href="#DejaVuSans-101"/>
      <use x="125" xlink:href="#DejaVuSans-103"/>
      <use x="188.476562" xlink:href="#DejaVuSans-117"/>
      <use x="251.855469" xlink:href="#DejaVuSans-110"/>
      <use x="315.234375" xlink:href="#DejaVuSans-100"/>
      <use x="378.710938" xlink:href="#DejaVuSans-111"/>
      <use x="439.892578" xlink:href="#DejaVuSans-115"/>
     </g>
    </g>
   </g>
   <g id="matplotlib.axis_4">
    <g id="ytick_7">
     <g id="line2d_27">
      <g>
       <use style="stroke:#000000;stroke-width:0.8;" x="591.545455" xlink:href="#m068d8bb259" y="302.645455"/>
      </g>
     </g>
     <g id="text_27">
      <!-- 0.0 -->
      <g transform="translate(568.64233 306.444673)scale(0.1 -0.1)">
       <use xlink:href="#DejaVuSans-48"/>
       <use x="63.623047" xlink:href="#DejaVuSans-46"/>
       <use x="95.410156" xlink:href="#DejaVuSans-48"/>
      </g>
     </g>
    </g>
    <g id="ytick_8">
     <g id="line2d_28">
      <g>
       <use style="stroke:#000000;stroke-width:0.8;" x="591.545455" xlink:href="#m068d8bb259" y="253.227273"/>
      </g>
     </g>
     <g id="text_28">
      <!-- 0.2 -->
      <g transform="translate(568.64233 257.026491)scale(0.1 -0.1)">
       <use xlink:href="#DejaVuSans-48"/>
       <use x="63.623047" xlink:href="#DejaVuSans-46"/>
       <use x="95.410156" xlink:href="#DejaVuSans-50"/>
      </g>
     </g>
    </g>
    <g id="ytick_9">
     <g id="line2d_29">
      <g>
       <use style="stroke:#000000;stroke-width:0.8;" x="591.545455" xlink:href="#m068d8bb259" y="203.809091"/>
      </g>
     </g>
     <g id="text_29">
      <!-- 0.4 -->
      <g transform="translate(568.64233 207.60831)scale(0.1 -0.1)">
       <use xlink:href="#DejaVuSans-48"/>
       <use x="63.623047" xlink:href="#DejaVuSans-46"/>
       <use x="95.410156" xlink:href="#DejaVuSans-52"/>
      </g>
     </g>
    </g>
    <g id="ytick_10">
     <g id="line2d_30">
      <g>
       <use style="stroke:#000000;stroke-width:0.8;" x="591.545455" xlink:href="#m068d8bb259" y="154.390909"/>
      </g>
     </g>
     <g id="text_30">
      <!-- 0.6 -->
      <g transform="translate(568.64233 158.190128)scale(0.1 -0.1)">
       <use xlink:href="#DejaVuSans-48"/>
       <use x="63.623047" xlink:href="#DejaVuSans-46"/>
       <use x="95.410156" xlink:href="#DejaVuSans-54"/>
      </g>
     </g>
    </g>
    <g id="ytick_11">
     <g id="line2d_31">
      <g>
       <use style="stroke:#000000;stroke-width:0.8;" x="591.545455" xlink:href="#m068d8bb259" y="104.972727"/>
      </g>
     </g>
     <g id="text_31">
      <!-- 0.8 -->
      <g transform="translate(568.64233 108.771946)scale(0.1 -0.1)">
       <use xlink:href="#DejaVuSans-48"/>
       <use x="63.623047" xlink:href="#DejaVuSans-46"/>
       <use x="95.410156" xlink:href="#DejaVuSans-56"/>
      </g>
     </g>
    </g>
    <g id="ytick_12">
     <g id="line2d_32">
      <g>
       <use style="stroke:#000000;stroke-width:0.8;" x="591.545455" xlink:href="#m068d8bb259" y="55.554545"/>
      </g>
     </g>
     <g id="text_32">
      <!-- 1.0 -->
      <g transform="translate(568.64233 59.353764)scale(0.1 -0.1)">
       <use xlink:href="#DejaVuSans-49"/>
       <use x="63.623047" xlink:href="#DejaVuSans-46"/>
       <use x="95.410156" xlink:href="#DejaVuSans-48"/>
      </g>
     </g>
    </g>
   </g>
   <g id="line2d_33">
    <path clip-path="url(#p63208ba6b1)" d="M 591.545455 302.645455 
L 604.227273 302.645455 
L 604.227273 278.555196 
L 616.909091 278.555196 
L 616.909091 255.127972 
L 629.590909 255.127972 
L 629.590909 231.258725 
L 642.272727 231.258725 
L 642.272727 212.693755 
L 654.954545 212.693755 
L 654.954545 199.875085 
L 667.636364 199.875085 
L 667.636364 188.382485 
L 680.318182 188.382485 
L 680.318182 180.426069 
L 693 180.426069 
L 693 169.375492 
L 705.681818 169.375492 
L 705.681818 159.650984 
L 718.363636 159.650984 
L 718.363636 148.158383 
L 731.045455 148.158383 
L 731.045455 139.980956 
L 743.727273 139.980956 
L 743.727273 133.129598 
L 756.409091 133.129598 
L 756.409091 126.27824 
L 769.090909 126.27824 
L 769.090909 118.100813 
L 781.772727 118.100813 
L 781.772727 109.923386 
L 794.454545 109.923386 
L 794.454545 100.419889 
L 807.136364 100.419889 
L 807.136364 97.546739 
L 819.818182 97.546739 
L 819.818182 91.137404 
L 832.5 91.137404 
L 832.5 87.60122 
L 845.181818 87.60122 
L 845.181818 84.949081 
L 857.863636 84.949081 
L 857.863636 81.191885 
L 870.545455 81.191885 
L 870.545455 78.760758 
L 883.227273 78.760758 
L 883.227273 74.561538 
L 895.909091 74.561538 
L 895.909091 71.025354 
L 908.590909 71.025354 
L 908.590909 68.594227 
L 921.272727 68.594227 
L 921.272727 64.83703 
L 933.954545 64.83703 
L 933.954545 60.858823 
L 946.636364 60.858823 
L 946.636364 58.206684 
L 959.318182 58.206684 
L 959.318182 57.101626 
L 972 57.101626 
L 972 55.554545 
" style="fill:none;stroke:#1f77b4;stroke-linecap:square;stroke-width:1.5;"/>
   </g>
   <g id="line2d_34">
    <path clip-path="url(#p63208ba6b1)" d="M 591.545455 302.645455 
L 604.227273 302.645455 
L 604.227273 250.237438 
L 616.909091 250.237438 
L 616.909091 211.747617 
L 629.590909 211.747617 
L 629.590909 166.212783 
L 642.272727 166.212783 
L 642.272727 140.266519 
L 654.954545 140.266519 
L 654.954545 123.770881 
L 667.636364 123.770881 
L 667.636364 116.38221 
L 680.318182 116.38221 
L 680.318182 107.447073 
L 693 107.447073 
L 693 99.886572 
L 705.681818 99.886572 
L 705.681818 96.278151 
L 718.363636 96.278151 
L 718.363636 91.123265 
L 731.045455 91.123265 
L 731.045455 85.28106 
L 743.727273 85.28106 
L 743.727273 82.875446 
L 756.409091 82.875446 
L 756.409091 80.126173 
L 769.090909 80.126173 
L 769.090909 78.751536 
L 781.772727 78.751536 
L 781.772727 77.3769 
L 794.454545 77.3769 
L 794.454545 75.658604 
L 807.136364 75.658604 
L 807.136364 73.768479 
L 819.818182 73.768479 
L 819.818182 72.050183 
L 832.5 72.050183 
L 832.5 68.957251 
L 845.181818 68.957251 
L 845.181818 66.723467 
L 857.863636 66.723467 
L 857.863636 65.69249 
L 870.545455 65.69249 
L 870.545455 64.489683 
L 883.227273 64.489683 
L 883.227273 62.943217 
L 895.909091 62.943217 
L 895.909091 61.74041 
L 908.590909 61.74041 
L 908.590909 61.56858 
L 921.272727 61.56858 
L 921.272727 59.334796 
L 933.954545 59.334796 
L 933.954545 57.6165 
L 946.636364 57.6165 
L 946.636364 56.757352 
L 959.318182 56.757352 
L 959.318182 56.413693 
L 972 56.413693 
L 972 55.554545 
" style="fill:none;stroke:#ff7f0e;stroke-linecap:square;stroke-width:1.5;"/>
   </g>
   <g id="patch_9">
    <path d="M 591.545455 315 
L 591.545455 43.2 
" style="fill:none;stroke:#000000;stroke-linecap:square;stroke-linejoin:miter;stroke-width:0.8;"/>
   </g>
   <g id="patch_10">
    <path d="M 972 315 
L 972 43.2 
" style="fill:none;stroke:#000000;stroke-linecap:square;stroke-linejoin:miter;stroke-width:0.8;"/>
   </g>
   <g id="patch_11">
    <path d="M 591.545455 315 
L 972 315 
" style="fill:none;stroke:#000000;stroke-linecap:square;stroke-linejoin:miter;stroke-width:0.8;"/>
   </g>
   <g id="patch_12">
    <path d="M 591.545455 43.2 
L 972 43.2 
" style="fill:none;stroke:#000000;stroke-linecap:square;stroke-linejoin:miter;stroke-width:0.8;"/>
   </g>
   <g id="text_33">
    <!-- Densidad acumulada -->
    <defs>
     <path d="M 19.671875 64.796875 
L 19.671875 8.109375 
L 31.59375 8.109375 
Q 46.6875 8.109375 53.6875 14.9375 
Q 60.6875 21.78125 60.6875 36.53125 
Q 60.6875 51.171875 53.6875 57.984375 
Q 46.6875 64.796875 31.59375 64.796875 
z
M 9.8125 72.90625 
L 30.078125 72.90625 
Q 51.265625 72.90625 61.171875 64.09375 
Q 71.09375 55.28125 71.09375 36.53125 
Q 71.09375 17.671875 61.125 8.828125 
Q 51.171875 0 30.078125 0 
L 9.8125 0 
z
" id="DejaVuSans-68"/>
    </defs>
    <g transform="translate(707.848352 37.2)scale(0.14 -0.14)">
     <use xlink:href="#DejaVuSans-68"/>
     <use x="77.001953" xlink:href="#DejaVuSans-101"/>
     <use x="138.525391" xlink:href="#DejaVuSans-110"/>
     <use x="201.904297" xlink:href="#DejaVuSans-115"/>
     <use x="254.003906" xlink:href="#DejaVuSans-105"/>
     <use x="281.787109" xlink:href="#DejaVuSans-100"/>
     <use x="345.263672" xlink:href="#DejaVuSans-97"/>
     <use x="406.542969" xlink:href="#DejaVuSans-100"/>
     <use x="470.019531" xlink:href="#DejaVuSans-32"/>
     <use x="501.806641" xlink:href="#DejaVuSans-97"/>
     <use x="563.085938" xlink:href="#DejaVuSans-99"/>
     <use x="618.066406" xlink:href="#DejaVuSans-117"/>
     <use x="681.445312" xlink:href="#DejaVuSans-109"/>
     <use x="778.857422" xlink:href="#DejaVuSans-117"/>
     <use x="842.236328" xlink:href="#DejaVuSans-108"/>
     <use x="870.019531" xlink:href="#DejaVuSans-97"/>
     <use x="931.298828" xlink:href="#DejaVuSans-100"/>
     <use x="994.775391" xlink:href="#DejaVuSans-97"/>
    </g>
   </g>
   <g id="legend_2">
    <g id="patch_13">
     <path d="M 598.545455 80.55625 
L 732.132955 80.55625 
Q 734.132955 80.55625 734.132955 78.55625 
L 734.132955 50.2 
Q 734.132955 48.2 732.132955 48.2 
L 598.545455 48.2 
Q 596.545455 48.2 596.545455 50.2 
L 596.545455 78.55625 
Q 596.545455 80.55625 598.545455 80.55625 
z
" style="fill:#ffffff;opacity:0.8;stroke:#cccccc;stroke-linejoin:miter;"/>
    </g>
    <g id="line2d_35">
     <path d="M 600.545455 56.298437 
L 620.545455 56.298437 
" style="fill:none;stroke:#1f77b4;stroke-linecap:square;stroke-width:1.5;"/>
    </g>
    <g id="line2d_36"/>
    <g id="text_34">
     <!-- Brand mas usada -->
     <g transform="translate(628.545455 59.798437)scale(0.1 -0.1)">
      <use xlink:href="#DejaVuSans-66"/>
      <use x="68.603516" xlink:href="#DejaVuSans-114"/>
      <use x="109.716797" xlink:href="#DejaVuSans-97"/>
      <use x="170.996094" xlink:href="#DejaVuSans-110"/>
      <use x="234.375" xlink:href="#DejaVuSans-100"/>
      <use x="297.851562" xlink:href="#DejaVuSans-32"/>
      <use x="329.638672" xlink:href="#DejaVuSans-109"/>
      <use x="427.050781" xlink:href="#DejaVuSans-97"/>
      <use x="488.330078" xlink:href="#DejaVuSans-115"/>
      <use x="540.429688" xlink:href="#DejaVuSans-32"/>
      <use x="572.216797" xlink:href="#DejaVuSans-117"/>
      <use x="635.595703" xlink:href="#DejaVuSans-115"/>
      <use x="687.695312" xlink:href="#DejaVuSans-97"/>
      <use x="748.974609" xlink:href="#DejaVuSans-100"/>
      <use x="812.451172" xlink:href="#DejaVuSans-97"/>
     </g>
    </g>
    <g id="line2d_37">
     <path d="M 600.545455 70.976562 
L 620.545455 70.976562 
" style="fill:none;stroke:#ff7f0e;stroke-linecap:square;stroke-width:1.5;"/>
    </g>
    <g id="line2d_38"/>
    <g id="text_35">
     <!-- Segunda mas usada -->
     <g transform="translate(628.545455 74.476562)scale(0.1 -0.1)">
      <use xlink:href="#DejaVuSans-83"/>
      <use x="63.476562" xlink:href="#DejaVuSans-101"/>
      <use x="125" xlink:href="#DejaVuSans-103"/>
      <use x="188.476562" xlink:href="#DejaVuSans-117"/>
      <use x="251.855469" xlink:href="#DejaVuSans-110"/>
      <use x="315.234375" xlink:href="#DejaVuSans-100"/>
      <use x="378.710938" xlink:href="#DejaVuSans-97"/>
      <use x="439.990234" xlink:href="#DejaVuSans-32"/>
      <use x="471.777344" xlink:href="#DejaVuSans-109"/>
      <use x="569.189453" xlink:href="#DejaVuSans-97"/>
      <use x="630.46875" xlink:href="#DejaVuSans-115"/>
      <use x="682.568359" xlink:href="#DejaVuSans-32"/>
      <use x="714.355469" xlink:href="#DejaVuSans-117"/>
      <use x="777.734375" xlink:href="#DejaVuSans-115"/>
      <use x="829.833984" xlink:href="#DejaVuSans-97"/>
      <use x="891.113281" xlink:href="#DejaVuSans-100"/>
      <use x="954.589844" xlink:href="#DejaVuSans-97"/>
     </g>
    </g>
   </g>
  </g>
  <g id="text_36">
   <!-- Tiempo al evento -->
   <defs>
    <path d="M -0.296875 72.90625 
L 61.375 72.90625 
L 61.375 64.59375 
L 35.5 64.59375 
L 35.5 0 
L 25.59375 0 
L 25.59375 64.59375 
L -0.296875 64.59375 
z
" id="DejaVuSans-84"/>
    <path d="M 18.3125 70.21875 
L 18.3125 54.6875 
L 36.8125 54.6875 
L 36.8125 47.703125 
L 18.3125 47.703125 
L 18.3125 18.015625 
Q 18.3125 11.328125 20.140625 9.421875 
Q 21.96875 7.515625 27.59375 7.515625 
L 36.8125 7.515625 
L 36.8125 0 
L 27.59375 0 
Q 17.1875 0 13.234375 3.875 
Q 9.28125 7.765625 9.28125 18.015625 
L 9.28125 47.703125 
L 2.6875 47.703125 
L 2.6875 54.6875 
L 9.28125 54.6875 
L 9.28125 70.21875 
z
" id="DejaVuSans-116"/>
   </defs>
   <g transform="translate(461.604375 20.877187)scale(0.18 -0.18)">
    <use xlink:href="#DejaVuSans-84"/>
    <use x="61.037109" xlink:href="#DejaVuSans-105"/>
    <use x="88.820312" xlink:href="#DejaVuSans-101"/>
    <use x="150.34375" xlink:href="#DejaVuSans-109"/>
    <use x="247.755859" xlink:href="#DejaVuSans-112"/>
    <use x="311.232422" xlink:href="#DejaVuSans-111"/>
    <use x="372.414062" xlink:href="#DejaVuSans-32"/>
    <use x="404.201172" xlink:href="#DejaVuSans-97"/>
    <use x="465.480469" xlink:href="#DejaVuSans-108"/>
    <use x="493.263672" xlink:href="#DejaVuSans-32"/>
    <use x="525.050781" xlink:href="#DejaVuSans-101"/>
    <use x="586.574219" xlink:href="#DejaVuSans-118"/>
    <use x="645.753906" xlink:href="#DejaVuSans-101"/>
    <use x="707.277344" xlink:href="#DejaVuSans-110"/>
    <use x="770.65625" xlink:href="#DejaVuSans-116"/>
    <use x="809.865234" xlink:href="#DejaVuSans-111"/>
   </g>
  </g>
 </g>
 <defs>
  <clipPath id="p813a3fc4a4">
   <rect height="271.8" width="380.454545" x="135" y="43.2"/>
  </clipPath>
  <clipPath id="p63208ba6b1">
   <rect height="271.8" width="380.454545" x="591.545455" y="43.2"/>
  </clipPath>
 </defs>
</svg>
